<?xml version="1.0" encoding="UTF-8" standalone="no"?>
<svg
   xmlns:dc="http://purl.org/dc/elements/1.1/"
   xmlns:cc="http://creativecommons.org/ns#"
   xmlns:rdf="http://www.w3.org/1999/02/22-rdf-syntax-ns#"
   xmlns:svg="http://www.w3.org/2000/svg"
   xmlns="http://www.w3.org/2000/svg"
   viewBox="0 0 2467.8132 1442.6533"
   height="1442.6533"
   width="2467.8132"
   xml:space="preserve"
   id="svg2"
   version="1.1"><metadata
     id="metadata8"><rdf:RDF><cc:Work
         rdf:about=""><dc:format>image/svg+xml</dc:format><dc:type
           rdf:resource="http://purl.org/dc/dcmitype/StillImage" /></cc:Work></rdf:RDF></metadata><defs
     id="defs6"><clipPath
       id="clipPath38"
       clipPathUnits="userSpaceOnUse"><path
         id="path36"
         d="m 9039.58,5304.75 c 72.56,-231.2 -56.04,-477.44 -287.24,-550 -231.19,-72.56 -477.43,56.04 -549.99,287.24 -72.56,231.19 56.04,477.44 287.23,550 231.2,72.56 477.44,-56.04 550,-287.24 z" /></clipPath><radialGradient
       id="radialGradient48"
       spreadMethod="pad"
       gradientTransform="matrix(418.623,131.365,131.365,-418.623,8620.96,5173.37)"
       gradientUnits="userSpaceOnUse"
       r="1"
       cy="0"
       cx="0"
       fy="0"
       fx="0"><stop
         id="stop40"
         offset="0"
         style="stop-opacity:1;stop-color:#fbe1bb" /><stop
         id="stop42"
         offset="0.478495"
         style="stop-opacity:1;stop-color:#fbe1bb" /><stop
         id="stop44"
         offset="1"
         style="stop-opacity:1;stop-color:#f9a96d" /><stop
         id="stop46"
         offset="1"
         style="stop-opacity:1;stop-color:#f9a96d" /></radialGradient></defs><g
     transform="matrix(1.3333333,0,0,-1.3333333,0,1442.6533)"
     id="g10"><g
       transform="scale(0.1)"
       id="g12"><path
         id="path14"
         style="fill:#f7ef0a;fill-opacity:1;fill-rule:nonzero;stroke:none"
         d="m 6591.14,5525.45 66.72,196.5 c 0,0 217.06,68.12 641.71,25.84 424.65,-42.28 464.97,-87.27 464.97,-87.27 l -47.85,-381.85 c 0,0 -227,130.52 -627,135.99 -399.99,5.48 -399.99,5.48 -399.99,5.48 l -83.59,57.61 -14.97,47.7" /><path
         id="path16"
         style="fill:#100f0d;fill-opacity:1;fill-rule:nonzero;stroke:none"
         d="m 7696.89,5366.79 c 0,0 -153.74,71.73 -540.74,94.93 -280.4,16.81 -465.47,13.75 -482.92,10.89 -17.44,-2.85 32.35,130.69 34.27,149.63 1.91,18.94 -2.16,56.97 28.71,58.79 30.87,1.83 304.2,32.59 593.86,2.97 289.66,-29.62 411.7,-59.45 411.7,-59.45 0,0 35.5,-4.58 44.29,0.8 8.79,5.38 3.21,64.92 11.16,81.31 7.96,16.4 -73.94,35.24 -126,42.48 -52.06,7.25 -470.6,114.78 -1026.14,55.27 -25.34,-2.72 -24.88,-20.91 -41.66,-75.96 -16.79,-55.06 -69.53,-220.96 -73.83,-240.65 -4.3,-19.69 -10.84,-32.23 31.81,-34.56 42.66,-2.34 62.35,-6.64 67.87,-7.53 5.52,-0.88 1.55,-46.68 -5.89,-64.73 -7.43,-18.05 -13.98,-30.59 19.28,-28.01 33.25,2.57 470.02,38.33 970.24,-85.91 116.51,-28.94 119.51,-38.48 126.94,-20.43 7.44,18.06 13.99,99.86 -42.95,120.16" /><path
         id="path18"
         style="fill:#f7ef0a;fill-opacity:1;fill-rule:nonzero;stroke:none"
         d="M 11486.5,6118.56 C 11802.4,5112.1 11233.3,4037.23 10215.4,3717.78 9197.54,3398.32 8116.32,3955.25 7800.44,4961.71 7484.57,5968.17 8053.66,7043.03 9071.53,7362.49 10089.4,7681.95 11170.6,7125.02 11486.5,6118.56" /><path
         id="path20"
         style="fill:#100f0d;fill-opacity:1;fill-rule:nonzero;stroke:none"
         d="m 8970.05,6121.84 c -223.72,528.48 -367.23,946.16 -614.3,855.3 -115.77,-42.58 -158.81,-162.5 -122.14,-289.88 77.48,-269.15 349.18,-645.04 380.24,-677.21 31.06,-32.18 -3.82,-70.09 -177.13,119.09 -308.23,336.47 -447.71,736.39 -255.03,901.67 192.68,165.28 388.95,95.29 466.91,-7.18 208.13,-273.56 330.79,-731.17 346.38,-803.13 15.6,-71.96 12.27,-186.54 -24.93,-98.66" /><path
         id="path22"
         style="fill:#100f0d;fill-opacity:1;fill-rule:nonzero;stroke:none"
         d="m 10592.5,6718.39 c -50.4,52.29 -318,36.45 -780.46,-318.32 -482.38,-370.03 -411.58,-516.97 -358.26,-586.7 44.21,-57.81 149.19,-139.35 465.38,70.07 32.67,25.08 -85.57,190.25 -181.51,244.36 -44.4,25.05 66.31,49.16 306.05,-98.57 18.1,-11.15 57.4,-41.57 77.1,-19.53 20.7,16.92 21.3,17.95 43.2,37.05 561.5,489.22 479,619.36 428.5,671.64" /><path
         id="path24"
         style="fill:#100f0d;fill-opacity:1;fill-rule:nonzero;stroke:none"
         d="m 9802.27,7190.93 c -116.45,120.64 -527.57,-161.64 -712.35,-315.28 -14.29,-13.65 -10.15,-26.38 -7.93,-33.92 69.27,-235.05 45.39,-347.35 13.39,-278.79 -17.62,37.75 -83.22,123.24 -132.33,162.85 -9.19,7.41 -22.18,20.55 -40.33,2.26 -90.97,-83.34 -107.79,-106.39 -107.79,-106.39 l 148.26,-380.57 c 0,0 62.3,35.27 343.28,275.43 280.98,240.16 612.27,553.76 495.8,674.41" /><path
         id="path26"
         style="fill:#100f0d;fill-opacity:1;fill-rule:nonzero;stroke:none"
         d="M 10215.4,3717.78 C 9197.54,3398.32 8116.32,3955.25 7800.44,4961.71 7484.57,5968.17 8053.66,7043.03 9071.53,7362.49 10089.4,7681.95 11170.6,7125.02 11486.5,6118.56 11802.4,5112.1 11233.3,4037.23 10215.4,3717.78 Z m 1374.9,1995.25 c -8.2,89.32 -16.5,127.51 -16.5,127.51 0,0 74,22.21 71.8,35.72 -14.9,78.41 -34.4,156.81 -58.9,234.87 -66.3,210.98 -163.1,403.57 -284.2,574.27 -11.1,14.61 -26.7,42.73 -45.1,40.73 -19.8,-2.14 -58.4,-14.93 -67.6,-2.46 -162,220.42 -374.9,363.21 -391.5,379.54 -7.8,7.77 4.8,21.84 6.4,32.88 2.2,15.77 10.3,29.44 -1.9,42.04 -90.9,62.52 -166.8,113.31 -286.7,164.12 -7.6,3.99 -23.1,-5.97 -32.1,-11.21 -42.4,-24.72 -42.4,-24.72 -42.4,-24.72 0,0 -168,69.23 -369.5,118.64 -201.58,49.42 -287.56,35.51 -322.92,47.99 0,0 -12.57,55.72 -35.78,55.89 -171.01,-1.46 -410.62,-0.31 -624.72,-85.41 -16.31,-6.55 -11.24,-35.17 -4.01,-53.23 0,0 -60.82,-17.54 -113.74,-38.32 0,0 -14.24,45.69 -37.05,39.12 -226.62,-67.28 -556.85,-290.13 -764.33,-508.19 -2.87,-32.18 15.15,-58.42 15.15,-58.42 -24.1,-25.82 -49.16,-61.12 -76.43,-91.13 0,0 -8.44,3.43 -35.77,24.84 -2.96,2.33 -6.22,3.33 -9.61,3.62 -414.78,-510.39 -574.83,-1205.43 -365.84,-1871.32 334,-1064.21 1587.5,-1618.49 2568.65,-1310.56 936.1,293.8 1489,1173.31 1408.2,2092.84 -1.1,21.99 -55.6,38.36 -83.6,40.35" /><path
         id="path28"
         style="fill:#100f0d;fill-opacity:1;fill-rule:nonzero;stroke:none"
         d="m 9229.22,3960.26 c -985.71,83.4 -1743.56,1325.38 -1171.69,2298.22 64.56,109.83 81.08,63.58 122.12,-0.4 41.04,-63.98 509.45,-643.65 1250.59,-823.3 741.16,-179.65 1363.36,-49.88 1573.46,165.43 0,0 -25.2,27.9 -52.6,44.81 -13.6,8.38 50.5,59.34 69.2,44.25 18.7,-15.09 157.7,-146.16 176.4,-161.25 18.7,-15.09 -20.6,-90.3 -43.3,-62.49 -22.7,27.81 -54.1,38.91 -52.5,11.47 1.6,-27.44 -486.4,-1633.95 -1871.68,-1516.74" /><path
         id="path30"
         style="fill:#ec1c24;fill-opacity:1;fill-rule:nonzero;stroke:none"
         d="m 8588.2,4346.88 c 0,0 618.38,-534.34 1452.6,-128.41 0,0 -246.21,475.59 -716.01,244.3 0,0 -423.84,356.96 -736.59,-115.89" /><g
         id="g32"><g
           clip-path="url(#clipPath38)"
           id="g34"><path
             id="path50"
             style="fill:url(#radialGradient48);fill-opacity:1;fill-rule:nonzero;stroke:none"
             d="m 9039.58,5304.75 c 72.56,-231.2 -56.04,-477.44 -287.24,-550 -231.19,-72.56 -477.43,56.04 -549.99,287.24 -72.56,231.19 56.04,477.44 287.23,550 231.2,72.56 477.44,-56.04 550,-287.24" /></g></g><path
         id="path52"
         style="fill:#ffffff;fill-opacity:1;fill-rule:nonzero;stroke:none"
         d="m 8314.8,5359.19 103.74,-54.18 c 27.84,39.61 68.43,70.74 118.2,86.36 43.44,13.64 87.89,13.55 128.74,2.28 l 4.31,135.43 c -50.88,7.34 -104.15,3.68 -156.47,-12.74 -86.71,-27.21 -155.51,-84.7 -198.52,-157.15" /><path
         id="path54"
         style="fill:#ffffff;fill-opacity:1;fill-rule:nonzero;stroke:none"
         d="m 8405.22,5283.62 -106.28,45.69 c -14.71,-31.18 -24.93,-64.51 -30.08,-98.97 29.32,-6.43 77.92,-18.63 110.02,-26.82 3.74,28.27 12.77,55.42 26.34,80.1" /><path
         id="path56"
         style="fill:#f7ef0a;fill-opacity:1;fill-rule:nonzero;stroke:none"
         d="m 8970.05,6121.84 c -213.02,503.21 -353.33,905.95 -579.56,864.86 -11.36,-2.06 -22.93,-5.22 -34.74,-9.56 -70.11,-25.79 -113.36,-80.03 -128.57,-147.03 -9.9,-43.62 -8.03,-92.61 6.43,-142.85 77.48,-269.15 349.18,-645.04 380.24,-677.21 l 356.2,111.79" /><path
         id="path58"
         style="fill:#f7ef0a;fill-opacity:1;fill-rule:nonzero;stroke:none"
         d="m 9602.9,7333.61 c 0,0 279.82,-34.45 446.7,-254.57 0,0 430,241.71 549.8,268.62 19.6,4.4 70.1,149.52 51.9,190.96 -18.3,41.44 -30.5,35.86 -64.8,33.83 -34.3,-2.04 -274.9,13.28 -617.52,-75.03 -342.61,-88.31 -442.1,-147.47 -366.08,-163.81" /><path
         id="path60"
         style="fill:#100f0d;fill-opacity:1;fill-rule:nonzero;stroke:none"
         d="m 9575.71,7286.65 c -18.71,-7.27 -97.14,81.31 -79.05,90.48 18.08,9.17 204.05,103.79 545.04,178.04 309,67.3 580.4,59.87 599.3,55.32 18.8,-4.55 55.9,-83.74 38.4,-89.23 -17.5,-5.49 -306.9,-7.24 -609.1,-79.4 -288.72,-68.91 -471.24,-146.13 -494.59,-155.21" /><path
         id="path62"
         style="fill:#100f0d;fill-opacity:1;fill-rule:nonzero;stroke:none"
         d="m 10070.3,6996.44 c 32.5,16.19 279.9,192.65 595.1,324.76 22.8,9.56 -31.5,86.13 -43.3,89.42 -11.8,3.29 -142.3,-32.38 -334.5,-138.11 -192.1,-105.72 -277.1,-169.12 -289.88,-178.36 -12.83,-9.23 52.98,-107.48 72.58,-97.71" /><path
         id="path64"
         style="fill:#f7ef0a;fill-opacity:1;fill-rule:nonzero;stroke:none"
         d="m 10429.4,6943.19 c 0,0 285.9,-8.95 454.2,-434.37 8.5,-21.32 405.5,311.14 432.5,319.63 27,8.48 82.2,186.29 55.2,230.43 -7.2,11.73 -254.5,35.41 -569.6,-14.55 -315,-49.97 -425.9,-81.2 -372.3,-101.14" /><path
         id="path66"
         style="fill:#100f0d;fill-opacity:1;fill-rule:nonzero;stroke:none"
         d="m 10284,6866.52 c 23.7,8.74 263.1,85.66 520.4,117.5 257.3,31.83 563.8,27.17 575.3,25.96 27.1,-2.85 8.4,106.59 -16.2,112.82 -24.7,6.24 -396.2,13.66 -620.5,-16.56 -224.3,-30.21 -482.1,-104.88 -506.4,-116.49 -24.2,-11.61 28.6,-130.2 47.4,-123.23" /><path
         id="path68"
         style="fill:#100f0d;fill-opacity:1;fill-rule:nonzero;stroke:none"
         d="m 10802.6,6522.28 c 16,17.93 110.6,115.08 255.8,220.05 145.2,104.97 265.4,161.89 278.1,165.88 12.7,3.99 97.8,-72.36 85.3,-82.42 -12.6,-10.05 -156.7,-60.51 -297.9,-185.18 -141.2,-124.67 -218.9,-199.73 -227.5,-205.9 -8.5,-6.18 -103.8,76.46 -93.8,87.57" /><path
         id="path70"
         style="fill:#f1511b;fill-opacity:1;fill-rule:nonzero;stroke:none"
         d="m 12087.7,4926.4 c 0,0 28.8,58.79 241.9,-52.5 213.1,-111.29 290.8,-100.01 290.8,-100.01 0,0 -156.2,113.45 -134.9,154.19 21.3,40.74 460.9,309.73 485.4,306.92 24.4,-2.8 375,-194.48 399.8,-223.38 24.8,-28.91 155.1,-543.1 157.4,-592.17 2.3,-49.06 -23.8,-99.2 -37.7,-121.89 -13.8,-22.68 -472.6,-347.47 -510.2,-369.74 -37.5,-22.27 -148.9,31.88 -182.7,39.6 -33.9,7.71 -335.3,133.21 -356.8,126.48 -21.4,-6.74 -481.6,-93.51 -498.9,-88.46 -17.3,5.05 -21.4,34.55 -21.4,34.55 0,0 249.4,191.54 278.3,466.58 28.8,275.04 -111,419.83 -111,419.83" /><path
         id="path72"
         style="fill:#f1511b;fill-opacity:1;fill-rule:nonzero;stroke:none"
         d="m 11691.3,4770.28 c 0,0 -1.3,95.86 83.5,159.63 84.8,63.77 177.1,137.26 242.7,94.98 65.7,-42.27 180.7,-158.16 163,-310.45 -17.7,-152.29 -75.7,-568.76 -165.4,-633.59 -89.7,-64.84 -292.1,-91.68 -352.2,-31.93 -60,59.76 -107.2,251.8 -83.2,383.89 24.1,132.08 109.4,313.91 111.6,337.47" /><path
         id="path74"
         style="fill:#100f0d;fill-opacity:1;fill-rule:nonzero;stroke:none"
         d="m 12111.6,4591.59 c -22,-275.31 -163.6,-547.51 -332.4,-524.51 -186.5,25.44 -181.1,257.21 -126.5,481.33 61.6,252.94 189.9,418.95 291.9,422.16 102.1,3.2 189.3,-99.47 167,-378.98 z m -144.1,509.3 c -160.6,-5.86 -286.6,-197.36 -315.5,-222.15 -28.9,-24.8 5.9,-118.94 5.9,-118.94 11.4,-38.74 -40.4,-24.5 -56.4,-54.13 -16,-29.62 -23.2,-59.68 -47.7,-123.32 -24.6,-63.64 -184.6,-630.85 226.6,-630.2 411.1,0.66 463.8,525.99 456.4,774.73 -4.1,139.41 -108.7,379.87 -269.3,374.01" /><path
         id="path76"
         style="fill:#f7ef0a;fill-opacity:1;fill-rule:nonzero;stroke:none"
         d="m 11836,4356.02 c -7.3,0 -14.8,0.76 -22.2,2.25 -95.1,19.25 -212.5,36.11 -316.1,50.98 -87.5,12.56 -156.7,22.48 -192.9,30.99 -22.9,5.39 -59.9,26.88 -50.2,110.38 11.2,96.44 96.6,315.76 195.4,315.76 14.2,0 27.9,-4.4 39.8,-12.71 112.3,-78.5 164.2,-106.96 422.3,-132.48 41.9,-4.14 85,-43.48 80.1,-141.5 -4.5,-92.87 -56,-223.67 -156.2,-223.67" /><path
         id="path78"
         style="fill:#100f0d;fill-opacity:1;fill-rule:nonzero;stroke:none"
         d="m 11450,4906.37 v 0 0 c -61.3,-0.01 -115.8,-47.53 -166.8,-145.27 -35.3,-67.59 -61.4,-146.49 -68.3,-205.92 -14.1,-121.84 58.3,-148.59 80.8,-153.88 37.9,-8.91 107.8,-18.94 196.2,-31.64 103.1,-14.8 220,-31.57 314,-50.59 10,-2.03 20.1,-3.06 30.1,-3.06 119.1,0 189.9,134.83 196.2,261.7 6.2,126.2 -58.7,177.61 -116.1,183.29 -249,24.62 -295.1,49.74 -403.3,125.45 -18.7,13.04 -40.4,19.92 -62.8,19.92 z m 0,-80 c 5.9,0.01 11.6,-1.74 16.9,-5.47 119.4,-83.56 177.6,-113.43 441.3,-139.51 85.3,-8.44 40.2,-285.38 -72.2,-285.38 -4.6,0 -9.4,0.48 -14.2,1.47 -175.5,35.5 -431.4,63.75 -507.8,81.7 -71.2,16.73 54.7,347.18 136,347.19" /><path
         id="path80"
         style="fill:#f7ef0a;fill-opacity:1;fill-rule:nonzero;stroke:none"
         d="m 11258.6,4365.61 c -32.2,0 -74.1,19.45 -90.9,112.15 -22,121.1 -4.9,374.61 217.7,467.34 36.5,15.21 66.9,22.61 93,22.61 41.6,0 63.6,-18.92 74.7,-34.79 18.7,-26.87 20.3,-63.91 4.4,-107.15 l -8.1,-22.08 -23.2,-3.66 c -8,-1.39 -202.1,-38.53 -159.2,-338.42 l 2.3,-15.64 -9.1,-12.95 c -7.9,-11.26 -49.8,-67.41 -101.6,-67.41 v 0" /><path
         id="path82"
         style="fill:#100f0d;fill-opacity:1;fill-rule:nonzero;stroke:none"
         d="m 11478.4,5007.7 c -31.5,0 -66.9,-8.4 -108.4,-25.68 -246,-102.51 -265.7,-379.35 -241.7,-511.41 22.9,-126.17 91.5,-145.01 130.3,-145.01 69.8,0 120.5,64.67 134.4,84.49 l 18.1,25.89 -4.5,31.29 c -16.4,114.85 2.4,202.2 54.3,252.61 33.4,32.44 71.2,40.59 71.5,40.64 l 46.5,7.33 16.2,44.16 c 20.2,55.24 16.9,106.31 -9.2,143.81 -13.6,19.38 -45.5,51.88 -107.5,51.88 z m 0,-80 c 51,0 58.9,-40.83 41.6,-88.15 0,0 -242,-38.17 -192.6,-383.61 0,0 -35.2,-50.34 -68.8,-50.34 -20.6,0 -40.6,18.79 -51.6,79.31 -21.1,116.48 -1.4,341.95 193.8,423.26 32.7,13.65 58.3,19.53 77.6,19.53" /><path
         id="path84"
         style="fill:#100f0d;fill-opacity:1;fill-rule:nonzero;stroke:none"
         d="m 12143.3,4891.42 c 0,0 356.9,-160.48 389.7,-181.62 32.9,-21.14 55.7,-35.57 74.5,-20.19 18.8,15.38 56.7,45.71 82.8,61.69 30,18.31 53.3,38.87 35.8,53.14 -16.1,12.99 -134.9,79.02 -149,99.06 -14.2,20.05 23.4,42.32 56.1,63.09 32.8,20.77 268.6,162.89 325.8,180.85 57.3,17.97 383.8,-162.53 412.8,-179.65 28.9,-17.11 104.9,-593.29 103.6,-622.52 -1.3,-29.23 -536.4,-377.98 -550.7,-382.47 -14.3,-4.49 -417,159.96 -461.9,169.45 -44.9,9.49 -610,-110.21 -610,-110.21 0,0 6.9,-47.46 25.8,-107.2 3.8,-12.16 66.5,5.15 252.1,39.83 185.6,34.68 276.7,44.93 294.9,45.4 18.2,0.47 434.7,-149.2 450.3,-157.38 15.7,-8.19 66.8,62.86 66.8,62.86 0,0 29.1,-9.21 37.6,-19.64 8.5,-10.42 130.4,43.56 326.6,186.38 196.3,142.82 254.8,190.02 266.2,204.05 11.3,14.03 -28,30.54 -28,30.54 0,0 20.8,9.12 30.3,12.11 9.5,3 -0.1,101.79 -21.8,304.6 -14.9,138.88 -24.4,199.9 -27.4,209.75 -6.2,19.98 -62.7,10.8 -91.6,11.45 l -32.8,139.92 c 0,0 36.2,84.58 30.6,91.71 -6.2,7.86 -403.5,174.16 -432.6,183.37 -29.1,9.21 -359.1,-149.63 -494.6,-244.29 -81.6,-57.07 -107.9,-65.31 -98.6,-78.12 9.2,-12.82 53,-85.54 53,-85.54 0,0 -238,132.29 -254.4,142.86 -16.4,10.57 -93.5,-52.91 -85.8,-68.86 7.6,-15.95 -10.7,-16.56 23.9,-34.42" /><path
         id="path86"
         style="fill:#ed1c24;fill-opacity:1;fill-rule:nonzero;stroke:none"
         d="m 10031.5,3342.35 c 0,0 31.1,-245.38 140.6,-310.57 109.6,-65.19 172.2,-64.31 205.4,-11.53 33.2,52.78 200.9,94.5 236.8,113.63 36,19.14 104,19.52 104,19.52 0,0 44.6,-250.65 101,-322.01 56.5,-71.37 157.5,-309.57 387.3,-365.81 229.9,-56.24 500.6,-42.04 500.6,-42.04 0,0 103.7,229.05 99.3,652.15 -4.4,423.1 -310.3,921.89 -351.2,977.17 -41,55.28 -183.6,175.6 -183.6,175.6 0,0 -203.2,-220.51 -511.1,-308.21 -307.9,-87.71 -475.5,-87.91 -475.5,-87.91 0,0 -25.8,-43.12 -75.6,-34.69 -49.8,8.44 -125,5.81 -156.3,-69.54 -31.4,-75.36 -26.3,-120.92 -26.3,-120.92 0,0 12.8,-96.54 56.2,-130.08 43.4,-33.55 147.8,-56.5 112.7,-103.35 -35.1,-46.85 -164.3,-31.41 -164.3,-31.41" /><path
         id="path88"
         style="fill:#100f0d;fill-opacity:1;fill-rule:nonzero;stroke:none"
         d="m 10070.9,3329.35 c 0,0 46.7,-207.26 141.5,-258.75 94.7,-51.48 166.6,18.37 164,153.67 -3.4,169.26 -86,415.84 -158,503.29 -72,87.46 -148.5,-4.17 -160,-108.9 l -79.96,-0.69 c 0,0 -0.82,175.51 146.36,224.31 147.1,48.8 208.4,-104.88 261.1,-214.14 52.6,-109.25 151.1,-435.85 59.3,-619.26 -91.8,-183.4 -379.7,-28.92 -466.8,247.7 -11.26,35.77 34.2,74.65 92.5,72.77" /><path
         id="path90"
         style="fill:#100f0d;fill-opacity:1;fill-rule:nonzero;stroke:none"
         d="m 10404,3086.2 c 0,0 41.2,-81.38 54.4,-98.22 13.1,-16.83 117.7,84.11 223.3,106.76 0,0 36.9,-551.76 617,-697.2 323.7,-81.13 507.2,-1.59 507.2,-1.59 0,0 199,345.34 20.7,1035.87 -125.6,486.6 -399.5,727.49 -420,734.17 -20.4,6.69 -82.4,-12.78 -53.9,-53.6 28.6,-40.83 274.2,-327.92 372.9,-770.73 111.1,-498.53 -3.6,-845.46 -3.6,-845.46 -11.5,-52.51 -850,-83.23 -928.4,625.82 0,0 22.5,20.16 59,29.01 36.6,8.84 17.5,2.85 36.6,8.84 19.1,5.99 -4.6,98.13 -11.5,111.69 -6.9,13.57 -103.4,12.1 -273.1,-64.76 -169.8,-76.86 -214.8,-93.18 -200.6,-120.6" /><path
         id="path92"
         style="fill:#100f0d;fill-opacity:1;fill-rule:nonzero;stroke:none"
         d="m 10229.6,3825.41 c -4.3,15.86 -25.1,55.05 7.3,52.09 32.3,-2.97 413.4,3.88 754.3,226.24 193.6,126.26 225.2,167.61 245.1,179.12 20,11.5 85.4,-46.53 88.2,-64 2.9,-17.47 -71.8,-138.31 -479.1,-318.32 -407.3,-180.02 -595.3,-140.5 -595.3,-140.5 0,0 -15.7,47.77 -20.5,65.37" /><path
         id="path94"
         style="fill:#ffffff;fill-opacity:1;fill-rule:nonzero;stroke:none"
         d="m 11468.3,2751.97 c 0,0 -54.5,-3.96 -125.1,17.71 l -44.9,-152.33 c 39.3,-12.44 82.6,-22.13 130.2,-28.09 l 39.8,162.71" /><path
         id="path96"
         style="fill:#ffffff;fill-opacity:1;fill-rule:nonzero;stroke:none"
         d="m 11076.8,3030.87 -149.4,-46.91 c 0,0 56.2,-242.01 325.2,-350.24 l 50,150.82 c -80.4,34.4 -171.3,104.38 -225.8,246.33" /><path
         id="path98"
         style="fill:#f7ef0a;fill-opacity:1;fill-rule:nonzero;stroke:none"
         d="m 9931.2,3582.4 c -3.07,9.01 -247.11,111.1 -367.49,10.43 -20.02,-16.74 8.63,-294.81 58.65,-395.59 21.38,-43.07 28.86,-66.92 126.05,-25.94 97.19,40.98 295.59,84.92 379.29,77.12 76.8,-7.16 95.8,95.57 81.1,159.08 -14.7,63.52 -98.3,121.13 -98.3,121.13 l -185,-44.97 5.7,98.74" /><path
         id="path100"
         style="fill:none;stroke:#100f0d;stroke-width:80;stroke-linecap:butt;stroke-linejoin:miter;stroke-miterlimit:10;stroke-dasharray:none;stroke-opacity:1"
         d="m 9931.2,3582.4 c -3.07,9.01 -247.11,111.1 -367.49,10.43 -20.02,-16.74 8.63,-294.81 58.65,-395.59 21.38,-43.07 28.86,-66.92 126.05,-25.94 97.19,40.98 295.59,84.92 379.29,77.12 76.8,-7.16 95.8,95.57 81.1,159.08 -14.7,63.52 -98.3,121.13 -98.3,121.13 l -185,-44.97 z" /><path
         id="path102"
         style="fill:#f7ef0a;fill-opacity:1;fill-rule:nonzero;stroke:none"
         d="m 9911.96,3551.96 c -2.64,7.1 -25.37,56.71 -145.71,64.94 -9.89,0.68 -19.75,1.02 -29.32,1.02 -110.49,0 -170.47,-45.44 -196.09,-64.84 -2.77,-2.1 -5.21,-3.95 -7.31,-5.46 l -12.18,-8.82 -14.97,1.4 c -5.79,0.53 -57.26,6.69 -79.96,56.91 -14.71,32.51 -14.82,83.5 68.12,141.81 33.98,23.88 111.17,47.97 207.04,47.97 31.29,0 63.18,-2.52 94.74,-7.51 83.71,-13.26 279.78,-44.27 261.98,-172.39 -7.1,-51.65 -74.63,-77.16 -95.16,-83.75 l -45.14,-14.49 -6.04,43.21" /><path
         id="path104"
         style="fill:#100f0d;fill-opacity:1;fill-rule:nonzero;stroke:none"
         d="m 9701.58,3826.9 h -0.01 c -91.99,0 -182.29,-21.69 -230.04,-55.26 -110.87,-77.94 -98.69,-153.13 -81.56,-191.01 24.32,-53.78 75.92,-76.85 112.71,-80.27 l 29.95,-2.78 24.37,17.63 c 2.3,1.67 4.97,3.68 8,5.98 24.3,18.41 74.85,56.73 171.91,56.73 8.67,0 17.63,-0.32 26.62,-0.93 83.33,-5.7 106.29,-32.49 110.57,-38.77 l 17.77,-79.88 83.5,26.81 c 33.53,10.76 112.53,43.63 122.53,116.36 5.6,40.32 -0.6,115.48 -104.92,165.9 -44.8,21.65 -105.3,38 -190.41,51.47 -33.62,5.32 -67.6,8.02 -100.99,8.02 z m -0.01,-80 c 27.58,0 57.26,-2.09 88.5,-7.04 133.43,-21.11 238.63,-55.05 228.63,-127.38 -4.3,-30.75 -67.79,-51.16 -67.79,-51.16 0,0 -18.76,84.33 -181.92,95.48 -11.08,0.76 -21.78,1.12 -32.08,1.12 -134.87,0 -203.4,-60.94 -226.83,-77.91 0,0 -33.44,3.11 -47.21,33.58 -15.57,34.42 20.68,68.71 54.67,92.6 26.04,18.3 93.79,40.71 184.03,40.71" /><path
         id="path106"
         style="fill:#100f0d;fill-opacity:1;fill-rule:nonzero;stroke:none"
         d="m 9861.04,3578.29 -9.57,-177.21 c -7.43,-21.45 47.2,-14.93 67.84,-8.45 20.64,6.48 11.77,91.97 20.94,131.92 9.17,39.94 -44.01,49.92 -79.21,53.74" /><path
         id="path108"
         style="fill:#ed1c24;fill-opacity:1;fill-rule:nonzero;stroke:none"
         d="m 8360.2,3345.14 c -29.08,-44.48 -15.55,-209.25 -5.07,-242.65 10.48,-33.39 154.12,-276.54 154.12,-276.54 0,0 -351.41,-105.05 -374.51,-114.92 -23.11,-9.87 -96.44,-43.37 -185.87,-92.39 -89.42,-49.03 -34.89,-5.71 -116.4,-54.88 -81.52,-49.16 -222.69,-342.39 -216.61,-420.22 2.87,-36.74 75.46,-140.26 112.18,-165.42 36.72,-25.16 212.59,-51.19 481.11,-113.65 268.52,-62.46 907.34,-110.89 967.86,-86.65 60.52,24.23 463.74,425.9 520.47,503.97 56.72,78.07 48.86,169.93 25.56,194.06 -23.29,24.13 -269.7,533.73 -304.08,601.55 -34.39,67.81 -67.76,282.68 -96.07,381.23 -28.3,98.54 -84.19,67.9 -245.14,88.13 -160.94,20.24 -478.08,-54.52 -549.32,-78.07 -156.69,-51.8 -118.66,-47.72 -168.23,-123.55" /><path
         id="path110"
         style="fill:#ffffff;fill-opacity:1;fill-rule:nonzero;stroke:none"
         d="m 7808.71,2113.49 164.55,-40.07 c 0,0 -3.32,54.57 21.96,124.33 l -158.65,38.07 c -12.4,-37.21 -21.95,-77.85 -27.86,-122.33" /><path
         id="path112"
         style="fill:#ffffff;fill-opacity:1;fill-rule:nonzero;stroke:none"
         d="m 7855.65,2285.37 155.73,-49.85 c 46.8,95.33 150.43,204.47 379.79,242.86 l -22.19,154.2 c 0,0 -371.77,-24.37 -513.33,-347.21" /><path
         id="path114"
         style="fill:#ffffff;fill-opacity:1;fill-rule:nonzero;stroke:none"
         d="m 8558.31,3056.21 c 0,0 76.12,-90.33 111.38,-162.87 0,0 77.18,4.57 190,-54.35 l -150.45,212.18 c 0,0 -55.07,1.34 -150.93,5.04" /><path
         id="path116"
         style="fill:#100f0d;fill-opacity:1;fill-rule:nonzero;stroke:none"
         d="m 9306.09,3215.78 c 0.72,-8.67 17,-37.46 39.21,-33.11 22.22,4.36 64.71,15.07 70.37,22.09 5.66,7.01 4.71,110.22 -17.54,193.63 -22.25,83.42 -31.07,165.8 -75.53,178.05 -44.46,12.25 -468.55,86.15 -759.69,-13.08 -291.15,-99.24 -318.21,-221.71 -317.81,-243.86 0.4,-22.15 51.17,-12.76 74.46,-36.89 23.3,-24.14 -44.09,-74.61 -64.58,-98.97 -13.35,-15.89 17.59,-67.52 79.65,-145.23 107.91,-135.13 124.76,-188.8 124.76,-188.8 0,0 -159.15,37.9 -389.25,-57.97 -12.75,-5.31 10.44,-92.47 10.44,-92.47 0,0 -67.7,-29.92 -99.6,-53.42 -7.23,-6.2 -40.46,37.08 -54.56,44.45 -28.21,14.73 -124.79,-36.55 -221.4,-179.54 -96.62,-142.99 -137.76,-413.59 -142.42,-431.18 -7.2,-27.15 66.09,-18.56 82.58,-25.18 16.48,-6.61 23.71,-16.19 20.46,-35.52 -3.25,-19.34 -10.58,-54.4 -10.35,-63.49 0.24,-9.1 -17.18,-32.91 171.38,-78.54 188.57,-45.63 380.36,-109.89 755.43,-161.18 375.07,-51.29 533.81,-39.47 554.46,-34.3 20.65,5.17 20.84,37.98 20.84,37.98 0,0 26.49,-21.81 42.82,-15.38 16.32,6.43 159.87,120.92 340.84,316.59 180.96,195.67 239.9,265.4 243.25,275.62 3.34,10.22 -63.8,58.44 -71.26,61.35 -7.47,2.89 -11.49,-0.99 -24,-15.4 -12.51,-14.4 -194.57,-227.45 -378.41,-384.71 -183.84,-157.27 -193.27,-155.61 -193.27,-155.61 0,0 -567.32,24.33 -918.87,109.2 -351.54,84.88 -506.92,129.13 -518.64,137.25 -11.72,8.11 -8.38,18.33 -6.32,45.18 2.05,26.84 29.05,391.67 364.03,555.76 334.99,164.09 647.17,72.08 687.75,58.63 73.11,-24.22 198.98,-82.97 207.12,-92.21 8.14,-9.24 37.13,65.37 31.89,82.06 -5.24,16.7 -51.08,62.58 -158.8,96.9 -107.72,34.32 -203.49,42.76 -203.49,42.76 0,0 -116.51,217.09 -200.19,291.71 0,0 259.71,-46.89 448.17,-8.7 188.46,38.19 333.24,132.1 338.45,136.35 5.21,4.26 -13.68,31.08 -27.25,24.2 -13.56,-6.87 -230.67,-99.9 -493.83,-92.1 -263.16,7.81 -394.34,79.31 -248.14,164.5 146.2,85.18 406.82,157.45 651.84,152.17 101.57,-2.19 171.68,-16.87 180.33,-19.39 8.66,-2.53 38.06,-83.7 45.97,-150.65 7.91,-66.95 5.87,-85.5 8.7,-119.55" /><path
         id="path118"
         style="fill:#100f0d;fill-opacity:1;fill-rule:nonzero;stroke:none"
         d="m 9367.93,3098.07 c 0,0 102.87,-219.26 195.13,-413.03 92.25,-193.76 159.45,-293.2 171.86,-302.41 12.41,-9.21 61.7,50.81 66.14,78.4 4.44,27.6 -60.21,83.3 -166.31,304.48 -84.65,176.47 -159.78,347.81 -164.64,364.63 -4.86,16.81 -119.61,5.02 -102.18,-32.07" /><path
         id="path120"
         style="fill:#f7ef0a;fill-opacity:1;fill-rule:nonzero;stroke:none"
         d="m 8825.06,3316.36 c -62.15,0.01 -106.6,16.38 -117.27,22.12 -41.17,22.15 -73.71,147.25 -89.46,219.86 -21.08,97.26 -9.31,224.72 24.69,267.41 14.59,18.33 31.78,21.25 40.71,21.37 l 1.32,0.01 c 77.83,0 227.27,-98.41 249.85,-123.38 11.54,-12.77 12.94,-25.59 12.08,-34.09 l -0.33,-3.01 c -6.63,-58.95 -1.21,-100.59 4.51,-125.13 5.49,-23.6 17.36,-53.84 27.82,-80.52 23.45,-59.79 43.7,-111.42 -2.13,-131.8 -48.95,-21.79 -100.01,-32.84 -151.77,-32.84 -0.01,0 -0.01,0 -0.02,0" /><path
         id="path122"
         style="fill:#100f0d;fill-opacity:1;fill-rule:nonzero;stroke:none"
         d="m 8685.05,3887.13 -1.81,-0.01 c -27.69,-0.35 -53.09,-13.3 -71.52,-36.45 -45.93,-57.69 -53.87,-202.11 -32.48,-300.8 46.04,-212.43 92.22,-237.27 109.6,-246.61 17.29,-9.31 68.02,-26.9 136.23,-26.9 57.41,0 113.95,12.21 168.05,36.29 16.55,7.37 68.71,37.89 45.17,121.53 -5.14,18.26 -13.37,39.22 -22.07,61.42 -9.97,25.41 -21.26,54.22 -26.1,75 -5.01,21.49 -9.71,58.29 -3.72,111.59 l 0.38,3.44 c 1.37,13.57 0.3,40.03 -22.21,64.94 -22.26,24.61 -81.91,61.14 -113.65,78.84 -103.48,57.72 -150.44,57.72 -165.87,57.72 z m 0,-80 c 67.64,0 223.09,-104.02 222.13,-113.45 -0.96,-9.47 -10.04,-76.52 5.02,-141.23 15.07,-64.71 66.79,-158.52 48.39,-166.71 -50.46,-22.46 -97.23,-29.38 -135.52,-29.38 -55.35,0 -92.97,14.47 -98.34,17.35 -15.6,8.39 -45.91,85.16 -69.31,193.11 -23.83,109.95 0.71,239.97 26.81,240.3 0.28,0.01 0.54,0.01 0.82,0.01" /><path
         id="path124"
         style="fill:#f7ef0a;fill-opacity:1;fill-rule:nonzero;stroke:none"
         d="m 9041.6,3604.83 c -23.85,0 -45.29,7.93 -49.34,9.53 l -20.9,8.19 -3.9,22.1 c -0.02,0 -16.94,69.49 -138.5,135.51 -59.94,32.55 -114.71,49.05 -162.78,49.05 -22.16,0 -38.55,-3.48 -50.51,-6.02 l -11.46,-2.33 -5.49,0.42 c -18.94,1.44 -81.89,9.76 -96.31,55.92 -7.13,22.79 -4.15,46.81 8.38,67.62 15.84,26.3 45.38,45.17 81.03,51.78 13.58,2.52 32.42,3.92 53.05,3.92 46.97,0 167.52,-7.5 272.1,-76.95 173.27,-115.06 236.92,-211.43 189.18,-286.42 -7.68,-12.06 -26.27,-32.32 -64.55,-32.32" /><path
         id="path126"
         style="fill:#100f0d;fill-opacity:1;fill-rule:nonzero;stroke:none"
         d="m 8644.88,4040.51 h -0.01 c -23.33,0 -44.2,-1.58 -60.35,-4.58 -46.89,-8.7 -86.25,-34.39 -107.99,-70.47 -18.52,-30.75 -22.89,-66.33 -12.3,-100.2 21.34,-68.27 99.03,-81.4 131.45,-83.87 l 10.98,-0.84 10.79,2.16 c 2,0.4 4.17,0.86 6.52,1.36 11.37,2.41 24.25,5.14 42.21,5.14 41.33,0 89.68,-14.88 143.69,-44.21 98.16,-53.31 118.12,-106.81 118.2,-107.29 l 7.79,-44.21 41.8,-16.39 c 7.35,-2.88 33.68,-12.27 63.94,-12.27 41.91,0 77.74,18.53 98.3,50.84 22.03,34.61 46.28,107.4 -38.78,206.07 -36.86,42.76 -91.37,88.23 -162.03,135.15 -113.66,75.47 -243.61,83.61 -294.21,83.61 z m -0.01,-80 c 62.38,0 164.72,-13.65 249.97,-70.26 112.54,-74.73 216.78,-170.02 177.57,-231.62 -6.77,-10.63 -18.85,-13.79 -30.81,-13.79 -17.5,0 -34.74,6.75 -34.74,6.75 0,0 -15.1,85.67 -158.81,163.71 -79.88,43.38 -139.74,53.91 -181.87,53.91 -30.44,0 -51.61,-5.49 -64.41,-8.05 0,0 -53.73,4.1 -61.18,27.96 -9.76,31.23 17.67,60.57 58.52,68.15 9.91,1.84 25.79,3.24 45.76,3.24" /><path
         id="path128"
         style="fill:#f1511b;fill-opacity:1;fill-rule:nonzero;stroke:none"
         d="m 7188.92,6467.69 -152.95,69.91 -92.53,177.96 c 0,0 289.39,121.49 362.9,171.15 73.5,49.66 141.02,143.44 250.45,78.61 109.44,-64.84 96.46,-148.71 34.79,-227.74 -61.66,-79.02 -402.66,-269.89 -402.66,-269.89" /><path
         id="path130"
         style="fill:#100f0d;fill-opacity:1;fill-rule:nonzero;stroke:none"
         d="m 6952.1,6796.5 c -145.99,-21.18 -149.62,-182.83 -40.04,-156.3 378.61,91.67 435.33,249.3 523.08,286.94 87.76,37.63 174.12,-28.82 103.88,-155.67 -70.23,-126.85 -285.73,-190.58 -371.06,-236.99 -85.33,-46.41 -92.4,-173.11 -92.4,-173.11 0,0 435.43,165.48 556.92,329.38 50.82,68.55 78.65,200.24 23.25,276.57 -55.4,76.33 -184.48,102.17 -280.03,49.05 -227.56,-126.52 -172.99,-183.53 -423.6,-219.87" /><path
         id="path132"
         style="fill:#f1511b;fill-opacity:1;fill-rule:nonzero;stroke:none"
         d="m 6512.92,6559.48 -66.69,-104.78 -55.27,-533.53 12.24,-80.74 154.48,-149.92 635.63,-4.89 265.64,222.24 244.23,340.56 -262.91,303.4 -495.44,242.78 -248.07,-77.85 -183.84,-157.27" /><path
         id="path134"
         style="fill:#100f0d;fill-opacity:1;fill-rule:nonzero;stroke:none"
         d="m 7634.82,6240.81 c -95.57,-209.12 -431.74,-494.48 -445.3,-501.35 -13.57,-6.88 -51.31,4.85 -253.42,22.65 -202.1,17.8 -344.33,-21.6 -371.04,-11.64 -26.7,9.96 -101.94,98.96 -118.11,117.53 -19.17,22.02 1.72,57.2 7.19,93.96 18.56,124.53 23.99,507.99 44.1,527.41 20.11,19.41 220.98,155.82 308.77,201.71 87.78,45.89 109.11,44.73 153.12,29.72 387.2,-132.04 688.68,-449.4 674.69,-479.99 z m 183.04,17.9 c -13.82,19 -54.47,98.43 -340.04,315.37 -285.57,216.95 -541.28,288.67 -555.59,284.18 -14.31,-4.5 -39.89,-64.93 -39.89,-64.93 0,0 -51.22,54.67 -74.32,44.8 -23.11,-9.87 -86.76,-32.47 -244.28,-131.69 -157.51,-99.22 -151.52,-118.3 -148.35,-128.4 3.17,-10.1 37.95,-79.18 26.59,-84.75 -11.35,-5.57 -39.62,-15.67 -68.99,-22.27 -29.38,-6.6 -35.03,-13.62 -30.68,-35.83 0,0 13.66,-76.94 -6.1,-264.42 -19.77,-187.48 -43.52,-262.1 -33.5,-277.3 10.01,-15.2 53.13,-35.73 53.13,-35.73 0,0 -30.68,-35.83 -25.44,-52.52 5.24,-16.7 180.98,-184.27 190.42,-181.3 9.44,2.96 49.17,2.33 296.12,16.95 246.96,14.62 420.77,-38.26 438.35,-27.5 17.59,10.76 181.32,148.61 324,303.44 142.69,154.83 252.4,322.89 238.57,341.9" /><path
         id="path136"
         style="fill:#f68b11;fill-opacity:1;fill-rule:nonzero;stroke:none"
         d="m 14489.2,2866 c 0,0 25.7,-575.86 133.3,-899.13 50.6,-152.1 60.8,-186.59 31.7,-227.53 -29.1,-40.94 -240.4,-202.7 -315.8,-226.27 -75.4,-23.57 -268.7,-66 -313.5,21.21 -44.8,87.21 -80.1,325.27 33,542.11 113.1,216.85 245.1,560.98 431.3,789.61" /><path
         id="path138"
         style="fill:#121111;fill-opacity:1;fill-rule:nonzero;stroke:none"
         d="m 14621.2,3096.99 c 0,0 -378.1,-375.41 -633.1,-1079.62 -220.1,-608.01 121.7,-629.23 248.9,-600.94 127.3,28.28 400.7,263.98 400.7,263.98 l -44.1,63.04 c 0,0 -245.8,-220.96 -361.3,-228.03 -115.5,-7.07 -300.1,50.3 -139.4,464.73 160.6,414.44 391.6,753.85 514.2,871.71 122.6,117.85 14.1,245.13 14.1,245.13" /><g
         transform="scale(1.08832)"
         id="g140"><path
           id="path142"
           style="fill:#f68b11;fill-opacity:1;fill-rule:nonzero;stroke:none"
           d="m 14544.3,144.905 c -309.6,100.797 -654.4,539.454 -900,1144.795 -280.3,691.52 -449,1678.48 -81.5,2374.59 249.6,472.99 705.3,744.27 1250,744.27 253.3,0 510.8,-61.84 725.3,-174.13 216.9,-113.59 381.7,-275 463.9,-454.5 298,-650.4 201.3,-1149.73 107.9,-1632.64 -30.9,-159.63 -60.1,-310.39 -75,-465.07 -59.3,-616.59 251.1,-1085.518 254.3,-1090.112 l 5.4,-8.087 -9.7,0.919 c -236.8,21.223 -449.7,203.202 -529.8,271.703 -12,10.236 -22.5,19.231 -26.5,21.805 -7.8,-6.02 -35.9,-42.91 -59.9,-77.184 l -1,-1.407 -50.1,-12.505 c 6.2,-157.754 104.1,-377.269 105.1,-379.473 l 6.1,-13.876 -12.7,8.086 c -3,1.745 -290.3,182.298 -445.7,315.531 -16.7,14.336 -29.9,25.638 -34.3,25.638 -1.3,0 -3.1,-2.024 -5.9,-5.696 -2.2,-2.76 -5,-6.159 -8.7,-10.017 -18.9,-18.837 -50.9,-76.358 -51.2,-76.907 l -1.9,-3.216 -3.5,1.008 c -0.3,0.094 -31.2,9.376 -44.4,12.775 -9.1,-7.628 -30.9,-95.561 -32.6,-234.217 -1.3,-121.471 2.3,-136.998 5.3,-149.496 0.4,-1.744 0.8,-3.492 1.2,-5.42 0.6,-3.033 -0.4,-5.053 -1.3,-6.155 -1,-1.195 -2.9,-2.667 -6.2,-2.667 -17,0 -91.3,47.138 -202,186.986 -97,122.389 -124.8,171.548 -139.7,197.922 -4,7.164 -6.9,12.311 -10,16.722 -0.3,0.366 -1,1.472 -3.8,1.472 -19.9,0 -74,-46.219 -93.2,-63.954 l -1.4,-1.378 -2,0.09 c -0.2,0.093 -25.9,1.471 -50.7,1.471 -32.5,0 -41.3,-2.39 -43.6,-3.399 -15.9,-236.696 9.6,-447.202 9.7,-449.316 l 1,-7.168 -6.9,2.207" /></g><g
         transform="scale(1.09453)"
         id="g144"><path
           id="path146"
           style="fill:#100f0d;fill-opacity:1;fill-rule:nonzero;stroke:none"
           d="m 14728.7,4388.1 h -0.1 c -249.9,0 -490.7,-59.66 -696.3,-172.54 -233.4,-128.06 -418.6,-319.82 -550.6,-569.94 -83.6,-158.34 -143.1,-340.64 -176.7,-541.82 -31.2,-187.12 -40.4,-391.07 -27.1,-606.16 24.6,-397.22 123.1,-818.05 284.8,-1216.99 244.5,-603.1 588.5,-1040.272 897.6,-1140.864 l 13.6,-4.476 -1.7,14.251 c -0.3,2.102 -25.2,209.225 -10,442.747 4.3,0.913 14.6,2.284 38.9,2.284 24.6,0 50.1,-1.371 50.4,-1.464 l 3.8,-0.182 2.9,2.652 c 27.9,25.857 74.1,62.402 89.6,62.402 0.2,0 0.3,0 0.4,-0.093 2.8,-4.022 5.5,-8.954 9.3,-15.624 14.9,-26.314 42.5,-75.375 139.2,-197.434 101.3,-128.001 182,-187.662 204.6,-187.662 5.3,0 8.3,2.652 9.6,4.293 2.2,2.652 3,6.214 2.3,9.868 -0.4,2.013 -0.9,3.748 -1.3,5.575 -2.9,12.241 -6.4,27.316 -5.1,147.641 1.5,125.991 20.4,211.873 29.6,227.679 14.2,-3.84 40.8,-11.788 41.1,-11.877 l 7,-2.102 3.6,6.395 c 0.3,0.639 31.9,57.284 50.1,75.557 4,3.929 6.8,7.491 9.1,10.325 1,1.277 2.2,2.741 3,3.654 4.6,-2.009 18.3,-13.704 30.4,-24.122 154.9,-132.747 440.8,-312.369 443.7,-314.196 l 25.5,-15.989 -12.4,27.502 c -0.9,2.191 -96.4,216.256 -103.9,371.966 l 44.5,11.12 3.3,0.828 2,2.788 c 20.8,29.628 46.3,63.351 56.2,73.458 5.1,-3.823 13.8,-11.367 23,-19.251 80.1,-68.369 292.6,-249.96 529.5,-271.248 l 19.1,-1.738 -10.7,15.899 c -0.8,1.188 -78.8,118.04 -148.5,308.925 -64.2,176.013 -134.3,452.833 -103.6,772.093 14.7,153.58 43.8,303.4 74.5,462.01 45.8,236.72 93.2,481.5 92,747.67 -1.5,301.08 -66.7,588.43 -199.5,878.46 -82.3,179.39 -246.8,340.64 -463.4,454.05 -213.9,111.97 -470.7,173.65 -723.3,173.68 z m 0,-9.14 c 515.6,-0.04 1009,-252.85 1178.3,-622.4 393,-857.86 92,-1461.65 32.3,-2083.46 -59.8,-621.81 253.6,-1086.913 253.6,-1086.913 -285.8,25.671 -541.2,292.315 -553.8,292.315 0,0 -0.1,-0.01 -0.2,-0.028 -9.7,-3.223 -63,-79.136 -63,-79.136 l -51.7,-12.92 c 4.9,-159.849 105,-382.775 105,-382.775 0,0 -286.4,179.528 -442.6,313.282 -22.5,19.461 -31.4,26.681 -37,26.681 -5.7,0 -8.1,-7.22 -17.9,-16.902 -19.3,-19.461 -51.6,-77.569 -51.6,-77.569 0,0 -32.3,9.686 -45.2,12.883 -0.2,0.09 -0.5,0.09 -0.6,0.09 -13,0 -34.9,-102.323 -36.6,-237.452 -1.5,-137.319 3.3,-138.872 6.5,-155.042 0.5,-2.102 -0.6,-3.291 -2.9,-3.291 -15.7,0 -90.7,49.429 -197.4,184.19 -122.8,155.042 -134,192.137 -148.5,213.151 -1.7,2.373 -4.3,3.472 -7.6,3.472 -26,0 -95.9,-64.871 -95.9,-64.871 0,0 -25.6,1.463 -50.8,1.463 -23.9,0 -47.3,-1.278 -47.6,-6.303 -16.2,-239.007 9.6,-448.96 9.6,-448.96 -727.8,236.905 -1584.9,2334.325 -973.3,3492.885 277.9,526.42 767.6,737.65 1238.9,737.61" /></g><g
         transform="scale(1.09931)"
         id="g148"><path
           id="path150"
           style="fill:#100f0d;fill-opacity:1;fill-rule:nonzero;stroke:none"
           d="m 13431.2,3625.54 c 579.4,1097.44 2084,819.05 2406.8,114.71 391.2,-854.13 91.6,-1455.31 32.1,-2074.42 -59.5,-619.1 252.5,-1082.188 252.5,-1082.188 -286.3,25.652 -542,294.241 -551.6,291.018 -9.6,-3.209 -62.7,-78.793 -62.7,-78.793 l -51.5,-12.863 c 4.9,-159.156 104.6,-381.114 104.6,-381.114 0,0 -285.2,178.749 -440.7,311.923 -44.9,38.636 -35.3,29.02 -54.7,9.736 -19.2,-19.376 -51.4,-77.233 -51.4,-77.233 0,0 -32.2,9.644 -45,12.828 -12.9,3.273 -35.4,-99.7 -37,-236.331 -1.6,-136.724 3.3,-138.269 6.5,-154.37 3.1,-16.1 -77.3,25.745 -199.4,180.114 -122.3,154.369 -133.5,191.303 -148,212.225 -14.5,20.923 -102.9,-61.132 -102.9,-61.132 0,0 -95.5,5.003 -98.1,-4.818 -75.6,-274.993 9.7,-447.012 9.7,-447.012 -724.8,235.877 -1578.1,2324.19 -969.2,3477.72 z M 14300.7,56.6728 c 136.8,-78.9596 177.9,-55.763136 184.3,-45.0284 6.5,10.7348 -21.4,107.2476 -21.4,107.2476 0,0 67.6,13.919 66.5,27.838 -1.1,13.918 -39.7,65.403 -43,200.492 -3,129.442 36.5,185.479 36.5,185.479 195.1,-306.649 442.7,-453.4678 446,-446.0093 3.2,7.5509 45,53.5813 63.2,78.2313 7.2,9.825 -13.9,26.835 -13.9,26.835 0,0 40.8,-6.46 34.3,19.284 -34.7,138.905 11.8,393.43 11.8,393.43 0,0 70.7,-70.68 259.5,-195.031 188.6,-124.442 289.4,-158.736 294.8,-153.371 5.3,5.37 52.5,88.966 42.8,94.336 -9.6,5.365 -49.3,32.2 -49.3,32.2 0,0 83.4,22.468 64.4,51.485 -78.3,118.985 -80.5,260.438 -80.5,260.438 302.3,-199.398 536.1,-250.794 575.2,-252.432 26.9,-1.091 6.9,85.235 6.9,85.235 0,0 66,24.106 56.9,40.753 -212.3,387.08 -303.4,849.035 -243.3,1277.855 60,428.82 307.6,990.57 31.7,1778.16 -275.9,787.58 -1078.6,854.26 -1263.5,862.3 -185,8.04 -242.9,-8.04 -247.7,-19.3 -4.8,-11.26 -1.6,-78.8 -11.2,-82.01 -9.7,-3.22 -112.6,-9.65 -135.1,-16.08 -22.6,-6.43 -27,90.44 -46.7,85.22 -722,-191.35 -927.8,-635.19 -1120.8,-1088.66 -16.3,-38.47 -9.6,-54.67 3.2,-61.1 12.8,-6.44 66,-30.56 66,-30.56 -10.9,-31.4 -18.9,-72.66 -25.8,-102.92 0,0 -79.1,3.25 -83.6,-10.72 -17.3,-53.36 -96.4,-392.07 8.6,-1033.46 167,-1020.81 655.9,-1794.783 1133.2,-2070.1372" /></g><g
         transform="scale(1.08897)"
         id="g152"><path
           id="path154"
           style="fill:#f68b11;fill-opacity:1;fill-rule:nonzero;stroke:none"
           d="m 16085.7,2532.28 c 0,0 -191.6,-71.43 -251.6,-193.18 l 162.3,-561.67 303.6,24.35 c 0,0 -97.4,490.24 -214.3,730.5" /></g><g
         transform="scale(1.09086)"
         id="g156"><path
           id="path158"
           style="fill:#100f0d;fill-opacity:1;fill-rule:nonzero;stroke:none"
           d="m 16294.4,1814.87 c 0,0 -48.6,495.87 -197.6,761.64 -11.5,20.38 -123.2,-19.45 -113.5,-42.13 9.7,-22.69 145.8,-316.63 194.5,-719.51 5,-41.96 122.2,-54.84 116.6,0" /></g><g
         transform="scale(1.0727)"
         id="g160"><path
           id="path162"
           style="fill:#100f0d;fill-opacity:1;fill-rule:nonzero;stroke:none"
           d="m 16300,1766.48 c 0,0 -42.7,383.28 -184.6,619.63 -29.6,49.45 -128.5,3.3 -118.7,-19.77 10,-23.07 145.6,-333.77 174.7,-596.56 3.4,-29.66 99,-46.15 128.6,-3.3" /></g><g
         transform="scale(1.1292)"
         id="g164"><path
           id="path166"
           style="fill:#e61d25;fill-opacity:1;fill-rule:nonzero;stroke:none"
           d="m 15907.1,1721.93 c -24.5,16.62 -73.6,57.92 -106.5,40.69 -32.8,-17.21 -543.2,-101.75 -543.2,-101.75 l -1.6,-114.28 87.7,-150.29 c 0,0 -20.4,-399.198 -25.1,-450.863 -4.7,-51.665 70.5,-176.902 106.5,-222.27 36,-45.431 516.6,-300.569 538.6,-306.854 21.9,-6.289 40.6,-25.063 87.7,3.099 46.9,28.163 248.8,327.205 248.8,371.041 0,43.837 -3.1,100.192 -17.2,114.282 -14.1,14.09 -236.4,195.685 -291.2,228.565 -54.8,32.87 14.1,73.58 14.1,73.58 0,0 -78.3,241.08 -98.6,277.09 -20.4,36 -14.1,95.49 -6.3,115.85 7.9,20.35 33.2,103.8 6.3,122.11" /></g><g
         transform="scale(1.13552)"
         id="g168"><path
           id="path170"
           style="fill:#100f0d;fill-opacity:1;fill-rule:nonzero;stroke:none"
           d="m 15742.3,1797.97 c 3,-10.61 3.1,-102.75 -12.4,-127.66 -15.6,-24.91 -82.6,26.46 -280.3,-24.91 -197.8,-51.37 -238.2,-76.28 -238.2,-76.28 0,0 74.7,-115.21 96.5,-133.88 21.8,-18.68 0,0 -18.6,-152.57 -18.7,-152.56 -23.4,-384.528 26.4,-459.249 49.8,-74.732 552.7,-372.087 583.8,-378.337 31.2,-6.165 269.4,340.971 267.8,379.885 -1.6,38.927 -263.2,225.741 -284.9,247.531 -21.8,21.8 6.2,87.18 -54.5,235.08 -60.7,147.89 -133.9,199.27 -133.9,214.83 0,15.57 82.5,210.17 88.8,219.51 6.2,9.35 127.6,-9.34 126,-20.23 -1.5,-10.91 -66.9,-179.04 -71.6,-189.94 -4.7,-10.89 140.1,-169.54 140.1,-379.85 0,-15.57 289.6,-233.52 305.2,-245.973 15.6,-12.45 -40.5,-71.615 -40.5,-71.615 0,0 53,-18.676 57.6,-32.688 4.7,-14.011 -326.9,-451.475 -362.7,-462.394 -35.8,-10.833 -481.9,229.586 -587.3,310.165 -105.5,80.614 -224.5,162.611 -169.4,502.505 37.5,230.4 29.6,222.62 29.6,222.62 0,0 -112.1,130.77 -121.4,158.79 -9.3,28.03 40.5,40.48 40.5,40.48 0,0 -23.3,60.71 -26.5,73.17 -3.1,12.45 135.4,104.31 353.4,129.21 218,24.91 281.6,39.17 286.5,21.8" /></g><path
         id="path172"
         style="fill:#e61d25;fill-opacity:1;fill-rule:nonzero;stroke:none"
         d="m 15564,2385.16 -242.7,-110.78 110.8,-393.62 c 0,0 -16.5,-73.07 -99,-127.28 -82.5,-54.21 -440.8,-129.63 -535.1,-106.06 -94.3,23.57 -162.6,-11.79 -169.7,-66 -7.1,-54.21 -70.7,-113.14 -70.7,-113.14 0,0 -160.3,66 -223.9,346.49 -63.7,280.48 -44.8,370.05 -23.6,381.83 21.2,11.79 209.8,2.36 209.8,2.36 0,0 167.3,167.35 233.3,195.63 66,28.29 346.5,134.35 431.4,153.21 84.8,18.86 190.9,25.93 190.9,25.93 0,0 167.3,-124.93 188.5,-188.57" /><path
         id="path174"
         style="fill:#e61d25;fill-opacity:1;fill-rule:nonzero;stroke:none"
         d="m 14724.9,2663.29 c 0,0 -167.3,-299.34 -174.4,-367.69 -7,-68.36 -2.3,-106.07 -2.3,-106.07 0,0 106,143.78 240.4,240.42 134.3,96.64 252,72.88 252,72.88 0,0 -249.7,151.04 -315.7,160.46" /><path
         id="path176"
         style="fill:#121111;fill-opacity:1;fill-rule:nonzero;stroke:none"
         d="m 15608.8,2359.24 c 0,0 -122.5,-75.43 -190.9,-96.64 0,0 58.9,-190.92 75.4,-273.42 16.5,-82.49 16.5,-63.63 16.5,-82.49 0,-18.86 -37.7,-37.71 -37.7,-37.71 0,0 18.9,-37.72 7.1,-54.21 -11.8,-16.5 -179.1,-207.42 -424.3,-216.85 -245.1,-9.43 -304,-2.36 -304,-2.36 0,0 -165,-188.56 -181.5,-205.06 -16.5,-16.5 -247.5,190.92 -292.3,466.69 -44.8,275.77 -58.9,318.2 -51.8,334.7 7,16.5 73,25.93 73,25.93 0,0 6,31.7 4.2,52.38 -1.8,20.68 146.7,-33.53 241,-42.96 0,0 122.5,259.28 436,332.34 313.5,73.07 426.6,87.21 426.6,87.21 l 49.5,-101.35 c 0,0 -226.3,-33 -452.5,-94.28 -226.3,-61.28 -383.2,-201.92 -424.3,-315.84 -9.4,-23.57 -174.4,23.57 -195.6,21.21 -21.2,-2.35 -37.7,0 -28.3,-89.56 9.4,-89.57 44.8,-360.63 190.9,-525.62 23.6,-4.71 124.9,162.64 134.4,172.06 9.4,9.43 233.6,-47.92 395.9,0 247.5,73.07 311.2,155.57 313.5,167.35 2.4,11.79 -50.6,247.8 -129.6,417.19 -16.5,35.36 181.5,73.24 254.5,113.14 73.1,39.9 94.3,-51.85 94.3,-51.85" /><path
         id="path178"
         style="fill:#121111;fill-opacity:1;fill-rule:nonzero;stroke:none"
         d="m 15087.9,2550.16 c 0,0 -306.8,151.28 -354.9,152.24 -48.1,0.96 -179.1,-190.2 -210.8,-321.95 -31.6,-131.75 -18.8,-193.28 -18.8,-193.28 l 101.3,63.64 c 0,0 -9.4,132 125.8,333.16 20.6,30.73 139.6,-55.55 187.7,-85.67 13.7,-8.56 169.7,51.86 169.7,51.86" /><path
         id="path180"
         style="fill:#121111;fill-opacity:1;fill-rule:nonzero;stroke:none"
         d="m 16077.9,2526.59 c 14.6,8.74 75.4,-37.72 56.5,-56.57 -18.8,-18.86 -186.2,-139.07 -318.2,-176.78 -131.9,-37.71 -183.8,-18.86 -230.9,28.28 -18.9,18.86 -259.3,259.28 -259.3,259.28 l -11.8,40.07 91.9,25.92 c 0,0 179.2,-197.99 228.7,-242.77 49.5,-44.78 113.1,-56.57 256.9,21.21 143.7,77.79 162.6,87.21 186.2,101.36" /><g
         transform="scale(1.0055)"
         id="g182"><path
           id="path184"
           style="fill:#ffffff;fill-opacity:1;fill-rule:nonzero;stroke:none"
           d="m 15954.7,2691.24 c -3.2,0 -6.4,0.09 -9.5,0.26 -63.4,3.4 -121.6,34.24 -168.1,89.2 -95.4,112.52 -132.1,315.61 -103.5,571.84 40.2,359.74 186.6,631.03 340.6,631.03 2.3,0 4.5,-0.06 6.9,-0.19 69.3,-3.71 142.5,-90.83 195.9,-233.04 56.1,-149.78 83,-336.27 73.7,-511.65 -19.1,-355.58 -187.4,-547.45 -336,-547.45" /></g><g
         transform="scale(1.00799)"
         id="g186"><path
           id="path188"
           style="fill:#121111;fill-opacity:1;fill-rule:nonzero;stroke:none"
           d="m 15974.7,4003.51 c -171.9,-0.03 -327.3,-279.53 -369.3,-655.93 -53.9,-482.52 123.6,-683.03 298.9,-692.44 3.7,-0.19 7.4,-0.3 11.1,-0.3 171.7,0 345.3,211.8 364.8,574.28 19.8,370.33 -121.8,764.77 -297,774.16 -2.8,0.15 -5.7,0.23 -8.5,0.23 z m 0,0 v -59.52 c 1.8,0 3.6,-0.05 5.3,-0.14 56.1,-3.02 120.9,-84.7 169.1,-213.21 54.7,-145.71 80.8,-327.34 71.6,-498.34 -8.4,-157.26 -49.2,-296.69 -115,-392.61 -54.5,-79.65 -123.9,-125.32 -190.3,-125.32 -2.6,0 -5.3,0.07 -8,0.22 -54.8,2.93 -105.4,30.08 -146.5,78.49 -89.8,105.94 -124,300.51 -96.3,547.89 19.5,174.82 65.3,333.42 128.6,446.6 55.8,99.39 122,156.41 181.5,156.42 v 59.52" /></g><path
         id="path190"
         style="fill:#ffffff;fill-opacity:1;fill-rule:nonzero;stroke:none"
         d="m 15289.2,2792.56 c -10.8,0 -21.8,0.89 -32.7,2.63 -47.4,7.57 -115.3,33.36 -169.8,113.3 -58.8,86.19 -114.3,255.63 -44.9,573.36 75.9,347.44 256.3,619.61 410.5,619.61 6.5,0 13,-0.51 19.2,-1.51 165.3,-26.39 224.2,-347 150.1,-816.8 -48.4,-307.19 -172.7,-490.59 -332.4,-490.59" /><path
         id="path192"
         style="fill:#121111;fill-opacity:1;fill-rule:nonzero;stroke:none"
         d="m 15452.3,4131.46 c -169.1,-0.02 -359.5,-275.71 -439.8,-643.21 -106.1,-485.51 64.5,-694.79 239.2,-722.68 12.6,-2 25.1,-3.01 37.5,-3.01 160.5,0 307.1,167.86 362.1,515.92 82.8,525.24 -0.3,823.2 -175,851.09 -8,1.27 -15.9,1.89 -24,1.89 z m 0,0 v -60 c 4.9,0 9.8,-0.38 14.5,-1.14 120.7,-19.27 206.2,-268.7 125.2,-782.49 -45.3,-286.99 -161.3,-465.27 -302.8,-465.27 -9.2,0 -18.6,0.76 -28,2.26 -41.5,6.63 -101.2,29.46 -149.7,100.58 -78.4,114.94 -92.8,310.29 -40.4,550.04 80.5,368.13 260.5,596.01 381.2,596.02 v 60" /><g
         transform="scale(1.00456)"
         id="g194"><path
           id="path196"
           style="fill:none;stroke:#121111;stroke-width:59.72769928;stroke-linecap:butt;stroke-linejoin:miter;stroke-miterlimit:10;stroke-dasharray:none;stroke-opacity:1"
           d="m 16300,3323.4 -599.8,172.8" /></g><path
         id="path198"
         style="fill:none;stroke:#121111;stroke-width:60;stroke-linecap:butt;stroke-linejoin:miter;stroke-miterlimit:10;stroke-dasharray:none;stroke-opacity:1"
         d="M 15651.1,3532.88 15062,3509.46" /><path
         id="path200"
         style="fill:#121111;fill-opacity:1;fill-rule:nonzero;stroke:none"
         d="m 16211.4,3175.6 c -6.1,-26.11 -23.3,-9.67 -83.1,35.99 -59.9,45.67 -107.1,56.43 -122.3,66.37 -15.3,9.94 67.2,-81.98 116.7,-145.62 49.5,-63.64 63.3,-66.9 58.7,-129.78 -2.2,-30.5 -87,-200.2 -204.9,-138.92 -117.8,61.28 -177.8,317.8 -100.7,618.52 l 339.1,-97.67 c 0,0 16.9,-120.85 -3.5,-208.89" /><path
         id="path202"
         style="fill:#121111;fill-opacity:1;fill-rule:nonzero;stroke:none"
         d="m 15541.7,3528.53 c 0,0 10.6,-89.78 -66,-352.58 -76.6,-262.81 -281.7,-281.37 -298.2,-116.69 -4.7,47.15 -14.6,61.73 -10.8,76.83 3.7,15.11 184.8,187.6 202.7,202.71 17.9,15.1 -29.3,19.81 -102.3,-34.4 -73.1,-54.21 -93.6,-99.71 -101,-68.71 -7.5,31 -2.6,160.28 39.7,279.49 l 335.9,13.35" /><g
         transform="scale(1.00952)"
         id="g204"><path
           id="path206"
           style="fill:none;stroke:#121111;stroke-width:59.4341011;stroke-linecap:round;stroke-linejoin:round;stroke-miterlimit:10;stroke-dasharray:none;stroke-opacity:1"
           d="m 16300,2960.15 c 0,0 -29.7,-189.73 -194.7,-314.22" /></g><g
         transform="scale(1.01447)"
         id="g208"><path
           id="path210"
           style="fill:none;stroke:#121111;stroke-width:59.14440155;stroke-linecap:round;stroke-linejoin:round;stroke-miterlimit:10;stroke-dasharray:none;stroke-opacity:1"
           d="m 16300,2830.41 c 0,0 -49.5,-193.47 -188.9,-281.77" /></g><path
         id="path212"
         style="fill:none;stroke:#121111;stroke-width:60;stroke-linecap:round;stroke-linejoin:round;stroke-miterlimit:10;stroke-dasharray:none;stroke-opacity:1"
         d="m 15000.7,2854.21 c 0,0 -101.3,129.64 -77.8,327.63" /><path
         id="path214"
         style="fill:none;stroke:#121111;stroke-width:60;stroke-linecap:round;stroke-linejoin:round;stroke-miterlimit:10;stroke-dasharray:none;stroke-opacity:1"
         d="m 14915.5,2802.76 c 0,0 -100.3,153.47 -86.5,313.42" /><path
         id="path216"
         style="fill:#74d1e3;fill-opacity:1;fill-rule:nonzero;stroke:none"
         d="m 3652.43,210 c -12.06,0 -22.65,4.402 -31.49,13.102 l -5.15,5.097 3.2,6.5 c 0.91,1.801 90.19,188.203 10.88,480.801 -4.02,1 -15.43,2.902 -45.69,2.902 -26.23,0 -52.67,-1.402 -52.93,-1.402 l -4.22,-0.199 -3.1,2.801 c -30.58,28.398 -81.22,68.3 -98.09,68.3 -0.01,0 -0.03,0 -0.05,0 -0.21,0 -0.29,0 -0.3,0.098 -3.06,-4.5 -6.12,-9.898 -10.28,-17.301 -16.29,-28.797 -46.61,-82.5 -152.41,-216.097 -95.7,-120.903 -179.89,-205.301 -204.75,-205.301 -3.92,0 -7.36,1.5 -9.68,4.398 -1.4,1.703 -3.57,5.403 -2.42,11.102 0.88,4.402 3.14,11.5 6.27,21.199 10.65,33.402 30.49,95.402 30.52,159 0,19.402 0.12,38.602 0.22,57.199 0.35,61.203 0.74,130 -4.16,149 -15.88,-4.297 -42.95,-12.398 -43.26,-12.5 l -7.71,-2.398 -3.91,7.101 C 3023.58,744 2989,806 2969.03,826.02 c -4.36,4.351 -7.42,8.222 -9.89,11.32 -1.11,1.39 -2.42,3.039 -3.34,4.019 -5,-2.207 -19.98,-15.058 -33.3,-26.457 C 2753.21,669.801 2509.71,503 2507.27,501.301 l -29.32,-20.102 14.55,32.403 c 1.07,2.398 105.53,236.8 113.72,407.16 l -52.3,13.078 -2.14,3.062 c -22.57,32.118 -50.1,68.648 -61.26,80.068 -4.7,-4.15 -12.41,-11.61 -20.44,-19.388 -70.18,-67.973 -283.77,-274.781 -544.51,-298.281 l -20.21,-1.801 10.87,17.102 c 69.35,109.39 177.81,295.428 173.6,329.148 -1.98,15.81 -43.2,26.45 -102.56,26.45 -7.38,0 -12,-0.2 -12.11,-0.2 l -4.85,-0.2 -65.81,77.02 c -47.57,-30.43 -312.87,-192.058 -578.68,-192.078 -55.09,-0.012 -107.51,6.93 -155.81,20.629 l -23.58,6.68 21.52,11.719 c 513.06,279.39 771.96,600.34 955.25,1184.22 119.66,381.2 112.25,698.72 105.08,1005.78 -10.63,455.27 -20.66,885.29 413.33,1424.16 242.59,301.2 710.08,495.82 1191,495.82 611.93,0 1112.18,-306.55 1372.45,-841.05 264.77,-543.72 244.91,-1265.27 -55.92,-2031.71 C 4861.41,1497.91 4350.05,789.902 3709.27,237.402 3708.66,236.801 3681.5,210 3652.43,210" /><path
         id="path218"
         style="fill:#100f0d;fill-opacity:1;fill-rule:nonzero;stroke:none"
         d="m 3702.74,245 c 0,0 -44.57,-44.5 -74.79,-14.797 0,0 93.69,189.199 10.61,491.496 -2.96,10.703 -107.83,5.301 -107.83,5.301 0,0 -97.23,90.102 -113.14,67.102 -15.91,-22.903 -28.29,-63.602 -162.64,-233.301 -134.35,-169.699 -202.73,-215.699 -199.2,-198 3.54,17.699 36.96,98.699 36.99,182.199 0.04,113.402 3.57,220.902 -10.58,217.402 -14.14,-3.601 -49.49,-14.203 -49.49,-14.203 0,0 -35.36,63.703 -56.57,84.891 -21.22,21.211 -10.61,31.82 -60.11,-10.61 C 2745.16,676.102 2501.63,509.5 2501.63,509.5 c 0,0 109.6,244 114.9,419 l -56.57,14.141 c 0,0 -58.33,83.079 -68.94,86.619 -10.61,3.53 -251.68,-291.658 -566.34,-319.959 0,0 181.3,285.832 175.07,335.689 -5,40 -125,35 -125,35 l -68.35,80 c 0,0 -398.66,-269.998 -733.66,-174.998 505,274.998 773.33,595.378 960,1189.998 301.57,960.65 -201,1535.61 516.66,2426.67 496.67,616.66 1986.67,806.66 2546.67,-343.34 560,-1150 -212.2,-2908.7 -1493.33,-4013.32 z M 5479.4,3561.66 c -6.66,23.33 -63.33,31.66 -73.33,31.66 -10,0 -13.33,120 -16.67,135 -3.33,15 65,25 73.34,26.67 8.33,1.67 -74.84,900.55 -902.66,1309.26 -291.93,144.14 -702.02,134.96 -740.09,134.96 -38.08,0 -24.75,-74.22 -24.75,-74.22 0,0 -107.5,-7.5 -135,-7.5 -27.5,0 -20,71.18 -22.5,81.84 -2.5,10.66 -670.31,1.88 -1100,-549.34 -495,-635 -399.01,-1251.46 -394.01,-1698.25 C 2159.72,1523.48 992.738,1039.99 1012.74,999.992 c 9.48,-18.972 45,-50 45,-50 0,0 -35,-65 0,-75 441.28,-126.09 880,134.998 880,134.998 0,-59.998 -177.4,-317.791 -177.4,-317.791 -10.02,-18.297 62.46,-44.797 62.46,-44.797 0,0 -21.86,-94.902 7.62,-93.703 42.98,1.801 299.97,58.403 632.31,277.571 0,0 -2.35,-155.571 -88.38,-286.368 -20.93,-31.8 70.71,-56.601 70.71,-56.601 0,0 -43.61,-29.399 -54.21,-35.301 -10.61,-5.898 41.24,-97.797 47.14,-103.699 5.89,-5.899 26.67,1.801 234.09,138.5 207.41,136.699 305.2,214.5 305.2,214.5 0,0 -8.88,-249.899 -47.04,-402.5 -7.07,-28.301 37.71,-21.301 37.71,-21.301 0,0 -23.24,-18.699 -15.32,-29.398 20.04,-27.102 66,-77.801 69.53,-86 3.54,-8.301 255.78,153.199 470.26,490.199 0,0 43.46,-61.5 40.07,-203.899 -3.53,-148.5 -45.96,-205 -47.14,-220.3 -1.17,-15.403 73.07,-30.7 73.07,-30.7 0,0 -30.64,-106.1012 -23.57,-117.8004 7.07,-11.8008 69.97,-62.5 202.7,49.5004 189.82,160 980.19,714.89 1598.1,2311.558 172.02,444.51 154.74,1081.54 143.75,1120" /><path
         id="path220"
         style="fill:#e61d25;fill-opacity:1;fill-rule:nonzero;stroke:none"
         d="m 3782.74,1584.99 20,80 240,38.97 245,204.36 82.5,23.38 169.16,-227.74 216.67,151.65 108.87,-97.26 193.09,-546.69 -96.62,-86.97 -692.01,-179.698 c 0,0 -380,286.668 -416.66,313.328 -36.67,26.67 -70,326.67 -70,326.67" /><path
         id="path222"
         style="fill:#74d1e3;fill-opacity:1;fill-rule:nonzero;stroke:none"
         d="m 5158.07,2070.66 -172,-299 -76.67,-67.7 104.47,-343.97 278.87,248.33 30,116.67 -164.67,345.67" /><path
         id="path224"
         style="fill:#100f0d;fill-opacity:1;fill-rule:nonzero;stroke:none"
         d="m 4872.74,1779.99 c 0,0 110,65 120,75 10,10 70,-105 65,-120 -5,-15 -105,-95 -125,-95 -20,0 -91.66,121.12 -60,140" /><path
         id="path226"
         style="fill:#100f0d;fill-opacity:1;fill-rule:nonzero;stroke:none"
         d="m 5117.74,1989.99 c 0,0 114.72,-159.57 137.87,-298.45 5,-30 -294.2,-266.55 -294.2,-266.55 l 96.62,-145 c 0,0 209.71,190 319.71,300 25,25 -25,72.5 -25,72.5 0,0 55,27.5 60,52.5 5,25 -205,465 -205,465 l -90,-180" /><path
         id="path228"
         style="fill:#100f0d;fill-opacity:1;fill-rule:nonzero;stroke:none"
         d="m 4992.74,1134.99 c 0,0 -47.89,393.95 -195,612.81 -25,37.19 -50,17.81 -75,0 -25,-17.81 -155,-92.81 -185,-107.81 -30,-15 -180,240 -205,255 -25,15 -15,48.43 0,56.71 15,8.29 40,33.29 65,38.29 25,5 55,-50 90,-95 35,-45 55,-105 75,-110 20,-5 170,115 200,125 30,10 40,-15 40,-15 0,0 39.08,40 62.04,15 22.96,-25 176.63,-400.34 267.96,-720 10,-35 -135.38,-87.76 -140,-55" /><path
         id="path230"
         style="fill:#100f0d;fill-opacity:1;fill-rule:nonzero;stroke:none"
         d="m 4149.4,1747.8 c 76.04,62.81 199.56,129.42 183.34,147.19 -16.22,17.77 -39.34,71.89 -58.7,63.91 -57.97,-23.91 -227.97,-133.91 -261.3,-160.58 -33.34,-26.66 -45.32,-46.66 -26,-73.33 19.33,-26.67 226,-273.33 236,-276.67 10,-3.33 109.54,70 94.77,80 -14.77,10 -141.93,154.6 -161.68,175.64 -19.76,21.03 -24.72,28.72 -6.43,43.84" /><path
         id="path232"
         style="fill:#100f0d;fill-opacity:1;fill-rule:nonzero;stroke:none"
         d="m 4056.07,1757.8 c 0,0 -299.76,-25.3 -306.67,-53.84 -7.29,-30.18 10,-63.97 10,-63.97 0,0 -53.33,-21.67 -73.33,-31.67 -20,-10 99.34,-363.33 109.67,-386.66 10.33,-23.34 426.26,-340 448.3,-356.668 22.03,-16.672 43.7,36.668 43.7,36.668 0,0 14.54,-63.34 29.77,-63.34 15.23,0 689.43,210 710.66,213.34 21.23,3.33 -14.3,140 -14.3,140 -11.13,20 -47.8,3.33 -81.13,-10 -33.34,-13.34 -587.1,-166.67 -598.55,-170 -11.45,-3.34 -38.12,-6.67 -61.45,10 -23.34,16.66 -346.67,276.66 -366.67,290 -20,13.33 -76.67,283.33 -63.33,283.33 13.33,0 240,36.67 256.66,45 16.67,8.33 0.92,123.13 -43.33,117.81" /><path
         id="path234"
         style="fill:#100f0d;fill-opacity:1;fill-rule:nonzero;stroke:none"
         d="m 2959.4,3464.99 c 0,0 332.9,-604.53 990,-763.83 616.67,-149.5 869.2,-39.74 1026.67,57.16 43.33,26.67 73.33,42.34 33.33,-77.16 -40,-119.5 -456.66,-972.84 -1323.33,-666.17 -377.74,133.66 -723.33,706.67 -760,1440 0,0 -1.67,13.33 -20,1.67 -18.33,-11.67 -43.33,-30 -48.33,-20 -5,10 -35,46.66 -35,53.33 0,6.67 135,55 153.33,51.67 18.33,-3.34 23.33,-53.34 23.33,-58.34 0,-5 -50.24,-0.81 -40,-18.33" /><path
         id="path236"
         style="fill:#ec1c24;fill-opacity:1;fill-rule:nonzero;stroke:none"
         d="m 3231.07,2591.66 c 0,0 326.67,-706.67 1011.67,-523.34 0,0 46.6,428.83 -418.34,305 0,0 -93.33,380 -593.33,218.34" /><path
         id="path238"
         style="fill:#ffffff;fill-opacity:1;fill-rule:nonzero;stroke:none"
         d="m 3960.55,2881.83 c -194.31,0 -310.31,206.78 -310.31,553.16 0,468.06 116,747.5 310.31,747.5 182.9,0 292.19,-364.8 292.19,-717.5 0,-365.15 -109.23,-583.16 -292.19,-583.16" /><path
         id="path240"
         style="fill:#100f0d;fill-opacity:1;fill-rule:nonzero;stroke:none"
         d="m 3960.55,4217.49 c -208.32,0 -345.31,-272.5 -345.31,-782.5 0,-378.5 136.99,-588.17 345.31,-588.17 208.31,0 327.19,239.67 327.19,618.17 0,378.5 -118.88,752.5 -327.19,752.5 z m 0,-70 c 88.19,0 148.52,-119.09 176.63,-190.08 51.2,-129.3 80.56,-308.77 80.56,-492.42 0,-176.33 -26.83,-321.12 -77.58,-418.73 -44.67,-85.89 -105.09,-129.44 -179.61,-129.44 -79.17,0 -143.39,39.82 -190.87,118.36 -55.24,91.39 -84.44,229.64 -84.44,399.81 0,235.82 30.5,427.18 88.2,553.4 48.26,105.57 111.22,159.1 187.11,159.1" /><path
         id="path242"
         style="fill:#ffffff;fill-opacity:1;fill-rule:nonzero;stroke:none"
         d="m 4695.55,2881.83 c -252.6,0 -290.31,346.57 -290.31,553.16 0,350.13 46.89,767.5 270.31,767.5 161.64,0 285.92,-299.71 302.21,-728.83 9.05,-238.03 -38.56,-429.38 -130.6,-524.99 -42.7,-44.35 -93.71,-66.84 -151.61,-66.84" /><path
         id="path244"
         style="fill:#100f0d;fill-opacity:1;fill-rule:nonzero;stroke:none"
         d="m 4675.55,4237.49 c -208.32,0 -305.31,-292.5 -305.31,-802.5 0,-378.5 116.99,-588.17 325.31,-588.17 208.31,0 331.55,249.94 317.19,628.17 -15,395 -128.88,762.5 -337.19,762.5 z m 0,-70 c 137.3,0 252.19,-298.85 267.24,-695.16 8.68,-228.58 -35.37,-410.6 -120.84,-499.39 -36.36,-37.76 -77.7,-56.12 -126.4,-56.12 -77.52,0 -136.25,37.98 -179.55,116.09 -49.56,89.4 -75.76,228.44 -75.76,402.08 0,250.27 23.63,441.5 70.24,568.36 60.31,164.14 139.16,164.14 165.07,164.14" /><path
         id="path246"
         style="fill:#100f0d;fill-opacity:1;fill-rule:nonzero;stroke:none"
         d="m 3820.24,3427.49 c -15,-2.5 -30,40 -22.5,160 7.5,120 40,407.5 160,390 120,-17.5 207.5,-260.13 217.5,-457.63 10,-197.5 -3.43,-437.49 -162.5,-457.37 -100,-12.5 -187.35,91.1 -205,250 -2.5,22.5 112.5,75 152.5,72.5 40,-2.5 65.41,-3.12 -7.5,20 -102.5,32.5 -132.5,22.5 -132.5,22.5" /><path
         id="path248"
         style="fill:#100f0d;fill-opacity:1;fill-rule:nonzero;stroke:none"
         d="m 4465.24,3414.99 c -21.31,246.58 42.5,510 127.5,532.5 85,22.5 180,-37.5 220,-266.25 40,-228.75 20,-251.25 0,-248.75 -20,2.5 -117.5,2.5 -175,-47.5 -57.5,-50 56.45,-30 142.95,-44.99 19.81,-3.43 37.05,-2.51 42.05,-35.01 3.58,-23.31 -5,-127.5 -80,-207.5 -89.77,-95.75 -242.5,-87.5 -277.5,317.5" /><path
         id="path250"
         style="fill:none;stroke:#100f0d;stroke-width:10;stroke-linecap:butt;stroke-linejoin:miter;stroke-miterlimit:10;stroke-dasharray:none;stroke-opacity:1"
         d="m 2289.68,2635.83 c -93.05,124.17 -183.61,172.5 -186.94,185.83 -3.34,13.33 26.66,33.33 70,100 43.33,66.67 66.66,106.66 40,120 -428.13,214.06 -721.93,51.12 -736.67,43.33 -23.49,-12.42 36.67,-96.66 60,-176.66 23.33,-80 40,-73.34 16.67,-116.67 -123.32,-229.02 -170,-663.33 -150,-700 20,-36.67 103.33,-103.33 393.33,-132.76 290,-29.43 453.33,39.43 460,62.76 21.77,76.18 13.33,193.33 13.33,193.33 0,0 -95.16,-30.03 -136.83,-2.25 -85.69,57.13 -163.17,278.92 -163.17,278.92 0,0 56.67,60 76.67,46.67 20,-13.34 120,-223.34 143.33,-223.34 94.48,0 233.34,80 226.67,96.67 -6.67,16.67 -33.33,100 -126.39,224.17 z" /><path
         id="path252"
         style="fill:#74d1e3;fill-opacity:1;fill-rule:nonzero;stroke:none"
         d="m 2386.07,3376.47 c 0,0 80,-123.41 66.67,-187.44 -13.34,-64.04 -156.67,-141.92 -156.67,-141.92 l -273.33,261.21 v -156.66 c 0,0 -170,76.66 -296.67,46.66 0,0 63.33,443.34 80,476.67 16.67,33.33 117.36,53.33 163.68,20 46.32,-33.33 416.32,-318.52 416.32,-318.52" /><path
         id="path254"
         style="fill:#100f0d;fill-opacity:1;fill-rule:nonzero;stroke:none"
         d="m 1656.07,3198.32 c 0,20 38.6,440.53 90,543.34 13.33,26.66 116.67,-16.67 116.67,-16.67 0,0 23.65,70 36.82,90 13.18,20 169.16,-67.5 356.51,-220 143.33,-116.67 203.33,-193.33 220,-206.67 16.67,-13.33 -63.33,-106.66 -83.33,-93.33 -20,13.33 -120,134.33 -276.67,247.17 -156.67,112.83 -230,139.5 -250,126.16 -20,-13.33 -70.04,-306.92 -83.33,-456.66 -3.55,-40 -126.67,-13.34 -126.67,-13.34" /><path
         id="path256"
         style="fill:#100f0d;fill-opacity:1;fill-rule:nonzero;stroke:none"
         d="m 2436.29,3238.32 c -22.72,-25.86 -106.89,-140 -141.04,-116.67 -51.52,35.2 -245.85,226.67 -265.85,243.34 -20,16.67 -33.33,20 -36.66,-23.33 -3.34,-43.34 -40,-287.04 -13.34,-280.19 26.67,6.85 65.61,-28.91 87.81,-14.36 22.19,14.55 0,142.51 0,142.51 0,0 128.52,-115.14 175.36,-154.88 46.83,-39.75 94.16,-63.39 203.72,46.92 33.11,33.33 79.78,82.59 69.78,107.96 -10,25.37 -54.91,77.01 -79.78,48.7" /><path
         id="path258"
         style="fill:#e61d25;fill-opacity:1;fill-rule:nonzero;stroke:none"
         d="m 1933.68,1931.7 c -44.94,0 -91.92,2.46 -139.62,7.29 -304.72,30.92 -386.97,102.92 -408.88,143.09 -27.55,50.51 30.18,496.62 149.95,719.06 11.37,21.13 11.37,21.13 1.73,44.85 -5.15,12.68 -12.2,30.05 -19.99,56.74 -9.16,31.39 -24.47,63.94 -37.99,92.65 -24.88,52.86 -42.86,91.06 -12.16,107.29 30.79,16.45 142.33,68.99 312.47,68.99 144.83,0 293.71,-37.72 442.49,-112.11 10.71,-5.36 17.93,-13.93 20.89,-24.81 7.31,-26.93 -11.48,-60.01 -53.06,-123.98 -21.44,-32.97 -40.04,-55.28 -52.35,-70.04 -4.21,-5.04 -8.77,-10.51 -11.8,-14.57 4.34,-3.68 10.54,-8.58 16.25,-13.1 34.52,-27.29 98.78,-78.09 164.08,-165.23 86.56,-115.5 116.88,-196.56 126.85,-223.2 0.87,-2.32 1.56,-4.16 2.1,-5.53 1.81,-4.52 3.74,-13.74 -3.67,-24.68 -21.03,-31.06 -151.57,-99.42 -241.57,-99.42 -21.43,0 -37.02,21.2 -104.28,141.8 -16.82,30.14 -39.27,70.4 -48.76,82.84 -8.87,-3.09 -27.17,-16.92 -43.87,-33.07 24.88,-67.36 89.4,-215.99 151.18,-257.18 8.27,-5.51 22.03,-8.42 39.79,-8.42 37.75,0 79.52,12.98 79.94,13.1 l 24.12,7.58 1.83,-25.21 c 0.36,-4.93 8.44,-121.59 -14.05,-200.27 -11.41,-39.94 -154.52,-84.46 -341.62,-84.46" /><path
         id="path260"
         style="fill:#100f0d;fill-opacity:1;fill-rule:nonzero;stroke:none"
         d="m 2189.4,2314.99 c -23.33,0 -123.33,210 -143.33,223.34 -20,13.33 -76.67,-46.67 -76.67,-46.67 0,0 77.48,-221.79 163.17,-278.92 41.67,-27.78 136.83,2.25 136.83,2.25 0,0 8.44,-117.15 -13.33,-193.33 -6.67,-23.33 -170,-92.19 -460,-62.76 -290,29.43 -373.33,96.09 -393.33,132.76 -20,36.67 26.68,470.98 150,700 23.33,43.33 6.66,36.67 -16.67,116.67 -23.33,80 -83.49,164.24 -60,176.66 14.74,7.79 308.54,170.73 736.67,-43.33 26.66,-13.34 3.33,-53.33 -40,-120 -43.34,-66.67 -73.34,-86.67 -70,-100 3.33,-13.33 93.89,-61.66 186.94,-185.83 93.06,-124.17 119.72,-207.5 126.39,-224.17 6.67,-16.67 -132.19,-96.67 -226.67,-96.67 z m 310,96.67 c 0,0 20,13.33 30,33.33 10,20 -36.66,93.34 -133.33,236.17 -96.67,142.83 -163.33,150.5 -163.33,150.5 0,0 113.33,200 100,229.81 -13.34,29.82 -60,76.85 -340,156.85 -280,80 -530,6.67 -594.47,-40 -27.74,-20.08 0,-80 0,-80 0,0 -48.87,-16.66 -42.2,-36.85 6.67,-20.18 93.33,-186.48 83.33,-214.65 -10,-28.17 -60,-95.16 -116.66,-338.49 -76.67,-329.25 -56.67,-490 -40,-493.34 16.66,-3.33 66.66,3.34 66.66,3.34 0,0 -23.33,-33.34 0,-56.63 23.34,-23.28 96.67,-100.04 443.34,-126.71 372.47,-28.65 476.66,43.34 520,70 28.39,17.47 10,46.71 10,46.71 0,0 26.84,-29.91 36.66,0 56.9,173.29 30,296.63 30,296.63 80,33.33 133.34,83.33 141.33,106.66 8,23.34 -31.33,56.67 -31.33,56.67" /><g
         transform="scale(1.1223)"
         id="g262"><path
           id="path264"
           style="fill:#f09bd2;fill-opacity:1;fill-rule:nonzero;stroke:none"
           d="m 16141.2,6908.47 158.8,86.33 -51.5,194.96 -149.4,282.69 -99.4,-319.89 141.5,-244.09" /></g><g
         transform="scale(1.1178)"
         id="g266"><path
           id="path268"
           style="fill:#f68612;fill-opacity:1;fill-rule:nonzero;stroke:none"
           d="m 15618.8,6300.62 129.8,-300.26 528.7,62.36 22.7,184.82 -33.5,148.14 -197.8,22.74 -14.4,248.96 89.1,8.99 55.9,96.91 -100.9,322.05 -83.4,86.89 -451.1,-777.9 54.9,-103.7" /></g><g
         transform="scale(1.12983)"
         id="g270"><path
           id="path272"
           style="fill:#100f0d;fill-opacity:1;fill-rule:nonzero;stroke:none"
           d="m 15329.3,6243.36 c 0,0 171.5,-341.2 178.3,-355.64 6.8,-14.44 49.3,-3.91 49.3,-3.91 0,0 0,-12.91 6.4,-19.37 6.4,-6.47 116.5,4.64 318.1,30.32 201.6,25.69 260.8,46.8 269.6,57.02 8.7,10.22 2,50.47 2,50.47 0,0 19.9,-1.7 30.1,2.51 10.2,4.21 16,78.2 2.3,218.26 -13.6,140.07 -24,170.09 -37,169.93 -13,-0.17 -13,-0.17 -13,-0.17 0,0 -6.8,22.95 -26.2,25.19 -19.3,2.25 -159.7,-0.92 -182.9,-12.78 0,0 11.5,97.01 2,141.23 0,0 108.8,9.02 121,12.02 12.1,3.01 8.1,63.98 8.1,63.98 0,0 46.6,1.16 41.4,22.42 -5.3,21.26 -27,135.17 -30,147.32 -3,12.15 184.3,95.55 193.8,102.73 9.5,7.2 -1,39.38 -10.5,50.26 -9.5,10.89 25.1,21.05 36.5,27.1 11.4,6.03 -109.8,280.7 -226.5,485.53 l -25.1,39.64 -37.5,-164.71 c 0,0 124,-258.01 147.6,-329.38 6.4,-19.37 0.7,-28.85 -18.6,-35.24 -19.4,-6.41 -74.1,-32.83 -85.5,-38.88 -11.4,-6.04 -18.3,-4.51 -23.6,16.76 -5.2,21.26 -44.4,127.61 -86,191.47 l -53.9,-179.36 c 0,0 63.7,-122.72 73.3,-272.55 1.5,-23.25 -103.3,-16.92 -115.8,-11.96 -12.5,4.97 -28,-3.72 -22.5,-32.96 5.7,-29.23 32.6,-187.18 0.7,-328.63 -6.1,-27.31 3.4,-45.93 15.5,-42.92 12.2,3.01 218.3,36.27 233.9,32.06 15.5,-4.21 19.7,-151.81 21.3,-255.83 0.4,-20.87 -237.2,-37.74 -346.6,-51.88 -109.3,-14.15 -140.8,-23.56 -144.5,-8.37 -3.8,15.18 -72.9,170.56 -95.5,222.98 -22.7,52.43 -55.9,121.58 -55.9,121.58 l -114.1,-86.24" /></g><g
         transform="scale(1.11448)"
         id="g274"><path
           id="path276"
           style="fill:#f09bd2;fill-opacity:1;fill-rule:nonzero;stroke:none"
           d="m 14659.9,5367.69 -0.2,0.11 c 1,1.55 93.5,155.84 50.7,416.8 -14.6,3.28 -50.5,6.54 -80.4,7.85 l -7.6,0.34 -5.1,5.66 c -27,30.31 -58.4,58.47 -72,65.05 -2,-2.61 -4.1,-5.64 -6.7,-9.26 -17.1,-24.54 -49,-70.24 -155.5,-181.06 -110.2,-114.78 -176.1,-162.12 -198.9,-167.76 -11.7,-2.9 -18.7,2.1 -21.7,5.34 -5,5.27 -6.6,12.85 -4.4,20.3 1.3,4.36 3.9,10.34 7.7,19.37 12.2,28.41 34.9,81.29 40.2,136.7 1.7,17.34 3.5,34.52 5.1,51.06 4.6,44.45 10,97.87 9.7,121.98 -13.6,-2.5 -29.4,-5.63 -29.6,-5.67 l -14.2,-2.81 -5.8,13.23 c -6.9,16.03 -27.9,60.97 -40.6,76.41 -2.6,3.23 -4.8,6.22 -6.5,8.76 -6.4,-4.02 -16.2,-10.89 -24,-16.34 -164,-115.38 -396.2,-243.73 -398.5,-245.01 l -55.8,-30.78 31.5,55.39 c 1.1,1.98 110.1,194.62 134.3,343.45 l -41.8,14.8 -3.3,5.82 c -14.1,25.05 -31.6,53.81 -41.8,68.56 -3.8,-2.96 -8.1,-6.48 -12.5,-9.94 -60.3,-48.09 -201.4,-160.67 -377.8,-204.33 -47.5,-11.75 -94.6,-17.57 -139.8,-17.29 l -36.4,0.22 22.4,28.74 c 87,111.91 181.1,248.24 181.3,273.33 -2.3,8.9 -45.1,22.02 -91.7,24.53 l -8.7,0.48 -49.8,71.24 c -36.7,-19.69 -138.9,-70.73 -265.6,-102.08 -138,-34.13 -259.8,-33.82 -362.2,0.91 -14.3,4.85 -21.6,12.76 -21.8,23.5 -0.3,18.59 17.3,25.21 59.9,41.18 48,17.98 128.2,48.08 200.5,102.71 l 15.9,11.97 c 143.4,107.88 479.2,360.51 585.6,785.52 45.6,182.23 39,322.96 31.4,485.91 -9.6,203.68 -20.6,434.53 58.9,821.12 51.4,250.33 171.1,483.88 346.1,675.43 181.1,198.15 408.2,335.4 656.8,396.91 232.1,57.43 473.5,47.69 717.4,-28.94 415.1,-130.43 709,-371.37 873.7,-716.14 156,-326.26 191.7,-734.67 106.3,-1213.9 -62.5,-349.97 -254,-772.44 -539.5,-1189.57 -280.2,-409.56 -631.5,-787.19 -989.2,-1063.33 l -26,23.53" /></g><g
         transform="scale(1.11874)"
         id="g278"><path
           id="path280"
           style="fill:#100f0d;fill-opacity:1;fill-rule:nonzero;stroke:none"
           d="m 16135.3,7571.28 c -129.1,-723.72 -790.9,-1673.39 -1516.2,-2233.31 0,0 99.6,160.3 51.5,436.37 -1.8,9.84 -95.6,13.93 -95.6,13.93 0,0 -78.7,88.52 -94.9,69.44 -16.1,-19.09 -30.6,-54.21 -164.7,-193.73 -134,-139.51 -198.8,-174.57 -194.1,-159.14 4.6,15.42 41.3,84.64 48.4,158.93 9.8,100.88 22.1,196.27 9.2,194.33 -12.8,-1.94 -45.2,-8.35 -45.2,-8.35 0,0 -26,59.65 -43.1,80.33 -17,20.69 -6.7,29.22 -54.4,-4.3 -164.5,-115.69 -395.4,-243.04 -395.4,-243.04 0,0 118.4,207.69 138.1,362.96 l -49.2,17.42 c 0,0 -44.8,78.91 -53.9,82.96 -9.1,4.05 -248.9,-238.02 -531.3,-236.29 0,0 185.7,238.83 184.5,283.72 -1,36.02 -108.3,41.83 -108.3,41.83 l -54,77.02 c 0,0 -346.6,-201.7 -625,-107.28 -50.2,17.05 107,32.92 242.7,135.57 135.8,102.64 494.2,358.51 605.9,804.36 101.8,406.62 -53.7,603.1 90.1,1302.8 143.7,699.7 848.4,1290.71 1690.8,1025.97 842.5,-264.73 1128.8,-978.61 964.1,-1902.5 z m 66.6,447.2 c 1.6,31.4 0.3,58.88 1.7,85.08 1.2,22.55 80.7,8.31 80.5,24.63 -19,619.22 -273.7,1103.31 -814.7,1368.79 -24.5,10.24 -56.7,-73.69 -72,-65.83 -8.2,4.18 -68.2,24.34 -79.8,36.13 -7.3,7.34 31,82.09 13.5,90.38 -40.7,15.91 -82.9,30.75 -126.5,44.45 -906.6,284.88 -1664.8,-351.09 -1819.5,-1104.03 -154.7,-752.95 5.6,-989.55 -135,-1418.14 -99.7,-303.86 -562.4,-752.94 -831.4,-794.93 -65.1,-10.16 -84.6,-135.07 -31.4,-153.72 387.1,-135.71 794.5,44.93 794.5,44.93 -5.1,-53.39 -185,-267.6 -185,-267.6 -10.5,-15.4 51.8,-45.18 51.8,-45.18 0,0 -27.6,-82.58 -1.2,-84.01 38.3,-2.09 271.8,26.26 586.3,192.9 0,0 -15.4,-138.21 -103.2,-247.25 -21.2,-26.53 58.1,-56.38 58.1,-56.38 0,0 -41.3,-22.49 -51.2,-26.83 -9.9,-4.33 28.4,-90.55 33.1,-96.3 4.7,-5.75 23.9,-0.66 220.1,103.25 196.3,103.91 289.9,164.77 289.9,164.77 0,0 -29.3,-221.57 -76.2,-354.13 -8.8,-24.56 31.7,-22.09 31.7,-22.09 0,0 -22.3,-14.7 -16.2,-24.92 15.5,-25.82 52.1,-74.84 54.6,-82.48 2.4,-7.64 240.6,114.46 460.3,396.04 0,0 33.3,-58.48 18.2,-184.84 -15.9,-131.83 -58.4,-178.53 -60.7,-192.06 -2.5,-13.54 62.3,-33.5 62.3,-33.5 0,0 -36.3,-91.77 -31.1,-102.85 5.4,-11.1 69.5,-77.28 184.6,26.71 638.2,575.94 1378.2,1371.86 1534,2315.38 24.4,148.05 38.6,290.95 42.3,428 0.4,21.71 -83.5,16.65 -82.4,35.63" /></g><g
         transform="scale(1.08644)"
         id="g282"><path
           id="path284"
           style="fill:#ffffff;fill-opacity:1;fill-rule:nonzero;stroke:none"
           d="m 15987.1,7739.63 c -12.3,0 -25.3,1.28 -38.4,3.82 -176.8,33.96 -236.4,236.41 -187.8,637.12 42.4,349.84 150,575.91 274.1,575.91 4.5,0 9.1,-0.29 13.7,-0.85 35.6,-4.32 71.3,-28.58 103.2,-70.18 102.4,-133.14 148.1,-408.63 111.5,-669.97 -30.6,-217.09 -103.2,-475.85 -276.3,-475.85" /></g><g
         transform="scale(1.08946)"
         id="g286"><path
           id="path288"
           style="fill:#100f0d;fill-opacity:1;fill-rule:nonzero;stroke:none"
           d="m 15990.6,8959.2 c -160.3,-0.01 -262.3,-281.84 -300.7,-598.54 -39.8,-327.73 -23.6,-620.95 209.4,-665.7 15,-2.89 29.5,-4.31 43.6,-4.31 165.2,0 260.4,196.87 302.7,498.23 54.4,387.9 -68,748.65 -238,769.28 -5.8,0.7 -11.4,1.04 -17,1.04 z m 0,-55.07 v 0 c 3.4,0 6.9,-0.21 10.3,-0.64 35.3,-4.28 65.4,-34.68 84.4,-59.44 80.1,-104.19 147.3,-351.25 105.7,-647.5 -21.1,-149.76 -54.2,-264.97 -98.5,-342.44 -41.7,-72.93 -90.7,-108.38 -149.6,-108.38 -10.6,0 -21.8,1.11 -33.2,3.31 -85.9,16.5 -137.9,75.37 -163.7,185.27 -23.3,98.67 -23.7,235.96 -1.4,419.72 39.3,323.89 140.4,550.09 246,550.1" /></g><g
         transform="scale(1.04417)"
         id="g290"><path
           id="path292"
           style="fill:#ffffff;fill-opacity:1;fill-rule:nonzero;stroke:none"
           d="m 15929.5,8094.62 c -11.2,0 -22.8,0.74 -34.5,2.25 -247.5,31.41 -266.6,297.44 -219.3,687.23 40.1,330.62 208.5,587.05 326.5,587.05 1.8,0 3.5,-0.06 5.3,-0.17 44.7,-3.14 89.1,-30.42 128.3,-78.91 113.6,-140.69 164.2,-416.91 125.6,-687.33 -33.1,-232.72 -117.6,-510.12 -331.9,-510.12" /></g><g
         transform="scale(1.04721)"
         id="g294"><path
           id="path296"
           style="fill:#100f0d;fill-opacity:1;fill-rule:nonzero;stroke:none"
           d="m 15955.7,9372.58 c -139.9,-0.03 -313.4,-275.48 -354,-610.55 -41.4,-340.95 -51.6,-679.65 243.5,-717.12 13,-1.65 25.7,-2.46 38,-2.46 199.7,0 313.8,213.02 359.3,533.25 57.5,403.45 -82.9,782.84 -279.5,796.62 -2.5,0.17 -4.9,0.26 -7.3,0.26 z m 0,0 v -57.3 c 1.1,0 2.2,-0.04 3.3,-0.11 46,-3.23 83.9,-38.82 107.6,-68.11 107,-132.39 156.1,-405.13 119.2,-663.27 -31.4,-220.83 -109.4,-484.05 -302.6,-484.05 -10,0 -20.3,0.68 -30.8,2.01 -110.3,14 -171.7,75.76 -199.2,200.27 -28.2,127.77 -13.1,300.75 5.4,453.11 39.4,324.92 204.8,560.13 297.1,560.15 v 57.3" /></g><g
         transform="scale(1.08399)"
         id="g298"><path
           id="path300"
           style="fill:none;stroke:#100f0d;stroke-width:55.35089874;stroke-linecap:butt;stroke-linejoin:miter;stroke-miterlimit:10;stroke-dasharray:none;stroke-opacity:1"
           d="m 15803.1,8454.95 c 0,0 232.9,-78.49 496.9,28.83" /></g><g
         transform="scale(1.04274)"
         id="g302"><path
           id="path304"
           style="fill:none;stroke:#100f0d;stroke-width:57.54090118;stroke-linecap:butt;stroke-linejoin:miter;stroke-miterlimit:10;stroke-dasharray:none;stroke-opacity:1"
           d="m 16300,8906.16 c 0,0 -275.6,-145.84 -577.4,-14.88" /></g><g
         transform="scale(1.07987)"
         id="g306"><path
           id="path308"
           style="fill:#100f0d;fill-opacity:1;fill-rule:nonzero;stroke:none"
           d="m 15986.4,8463.62 c 0,0 -26.3,-107.65 -11.3,-284.36 15.1,-176.73 54.5,-268.14 129.6,-264.76 75,3.39 124,93.28 147.9,200.4 15.9,71.17 33.1,90.58 -1,119.25 -34.1,28.67 -118.6,76.93 -146.3,80.17 -27.8,3.25 16,40.05 89.8,23.4 73.8,-16.66 101.1,-38.56 100.4,-21.88 -0.8,16.67 4.5,146.67 -5.2,175.19 0,0 -175.9,-64.92 -303.9,-27.41" /></g><g
         transform="scale(1.03875)"
         id="g310"><path
           id="path312"
           style="fill:#100f0d;fill-opacity:1;fill-rule:nonzero;stroke:none"
           d="m 16254.9,8899.76 c 0,0 45.1,-39.79 -4.3,-293.93 -49.3,-254.13 -130.6,-333.11 -199.3,-330.29 -68.5,2.82 -122.1,103.09 -141.3,254.76 -7.3,57.82 -6.9,77.22 8,87.91 14.9,10.7 100.1,55.51 165.2,40.87 37.2,-8.35 22.7,14.39 -9.4,30.98 -32.2,16.6 -115.7,18.01 -141.4,10.24 -25.8,-7.76 -17.1,6.67 -14.5,38.86 2.5,32.18 6.2,90.64 32.6,138.53 0,0 196.8,-18.48 304.4,22.07" /></g><g
         transform="scale(1.09948)"
         id="g314"><path
           id="path316"
           style="fill:none;stroke:#100f0d;stroke-width:54.57130051;stroke-linecap:round;stroke-linejoin:round;stroke-miterlimit:10;stroke-dasharray:none;stroke-opacity:1"
           d="m 16300,8326.69 c -100.8,-87.88 -213.2,11.83 -213.2,11.83 0,0 137,42.17 167.7,172.33" /></g><g
         transform="scale(1.05277)"
         id="g318"><path
           id="path320"
           style="fill:none;stroke:#100f0d;stroke-width:56.99229813;stroke-linecap:round;stroke-linejoin:round;stroke-miterlimit:10;stroke-dasharray:none;stroke-opacity:1"
           d="m 16284.5,8773.27 c -78.2,-30.5 -150.9,29.69 -150.9,29.69 0,0 103.5,29.07 166.4,96.52" /></g><path
         id="path322"
         style="fill:#100f0d;fill-opacity:1;fill-rule:nonzero;stroke:none"
         d="m 15662,8115.31 c 0,0 -201,24.94 -216.8,22.83 -15.9,-2.1 -3.2,101.2 -1.5,108.91 1.7,7.71 37.7,-5.24 36.5,7.2 -1.3,12.44 -22.7,230.75 -8.2,334.87 2.6,18.86 119.6,9.57 120,0.56 0.5,-9 1.8,-316.42 5.2,-330.15 3.4,-13.73 81.4,-19.92 81.4,-19.92 l -16.6,-124.3" /><path
         id="path324"
         style="fill:#100f0d;fill-opacity:1;fill-rule:nonzero;stroke:none"
         d="m 15617,7929.35 c 0,0 -280.1,67.02 -334.7,79.29 -15.4,3.46 -24.8,26.64 -22.1,60.08 2.7,33.43 14.3,744.7 16.9,763.55 2.6,18.86 -126.1,42.72 -127.8,25.38 -1.7,-17.34 -16.6,-234.68 -18.3,-480.34 -1.3,-200.65 -4.2,-388.7 -2,-404.65 2.3,-15.96 30.2,-18.17 30.2,-18.17 0,0 4.2,-31.74 1.1,-41.59 -3,-9.85 8.6,-19.74 47.1,-28.42 38.6,-8.67 402.4,-88.03 402.4,-88.03 l 7.2,132.9" /><g
         transform="scale(1.05136)"
         id="g326"><path
           id="path328"
           style="fill:#100f0d;fill-opacity:1;fill-rule:nonzero;stroke:none"
           d="m 16286.1,7627.74 c -16.9,-9.15 -280.4,-162.51 -550,-3.36 -269.8,159.13 -312.5,424.33 -318.1,435.76 -5.6,11.42 74,46.7 84.2,40.55 10.2,-6.14 92.4,-264.02 291.2,-381.22 199.4,-117.51 443.2,-3.51 457.4,1.74 14.3,5.27 49.2,-85.88 35.3,-93.47" /></g><g
         transform="scale(1.04619)"
         id="g330"><path
           id="path332"
           style="fill:#f68612;fill-opacity:1;fill-rule:nonzero;stroke:none"
           d="m 15876.5,7869.34 c 3.2,-1.96 5.7,-4.31 7.5,-7.19 6,-8.58 87.4,-98.57 153.2,-157.42 25.6,-22.9 70.6,-58.61 114.2,-93.13 137.9,-109.33 148.6,-121.09 147.3,-138.02 0,-0.93 -0.1,-2.04 -0.1,-3.32 -0.9,-22.53 -3.2,-82.37 -111.7,-213.23 -108.5,-130.77 -182.6,-137.83 -206.7,-123.3 -1.9,1.14 -3.7,2.5 -5.1,4.02 -6,5.82 -64.1,55.58 -115.5,99.51 -60.5,51.78 -123,105.31 -142.1,122.51 -5.9,5.3 -11.3,9.41 -16,12.21 -10.4,6.3 -12.5,5.12 -21.5,0.17 -2.4,-1.33 -4.7,-2.64 -7.1,-3.81 -132,-62.09 -321.9,12.44 -358.7,28.01 -9.9,4.25 -20.8,10.54 -31.2,16.62 -12.5,7.25 -41.7,24.2 -47.7,19.67 -23.4,-17.49 -191.2,-74.63 -242,-91.72 l -5.4,-1.81 -5.4,1.42 c -4,0.99 -7.3,2.38 -10.4,4.22 -19,11.47 -18,31.02 -16,73.84 1.3,27.09 3.3,68.01 2.2,127.4 -2.6,136.71 71,319.06 95.2,378.97 3.2,8.08 5.5,13.62 6.4,16.15 1.7,5.19 5.8,17.36 17.7,21.71 4.8,1.81 12.7,2.8 22,-2.82 v 0 c 4.5,-2.76 9,-6.76 14.7,-11.83 4.7,-4.28 10.7,-9.61 18,-15.45 19.4,-15.29 60.7,-55.83 93.9,-88.41 10.8,-10.66 22.7,-22.34 29.6,-28.97 2.3,0.78 5,1.72 7.6,2.65 26.7,9.44 89.3,31.58 221.9,58.7 179.6,36.72 365.2,8.38 391.2,-7.35" /></g><g
         transform="scale(1.05222)"
         id="g334"><path
           id="path336"
           style="fill:#100f0d;fill-opacity:1;fill-rule:nonzero;stroke:none"
           d="m 15033.9,7872.32 c 30,-23.7 122.7,-118.46 128.9,-122.15 6.1,-3.68 47.7,23.92 237.6,62.76 190,38.83 370.8,2.97 376.5,-6.01 5.7,-8.97 89.1,-100.87 155.7,-160.52 66.7,-59.66 255,-198.25 253.7,-214.14 -1.2,-15.89 5.2,-69.69 -106.8,-204.7 -112,-135 -177.1,-123.42 -182.1,-117.71 -4.8,5.72 -219.5,187.98 -257.3,221.89 -37.9,33.92 -49.6,18.87 -65.2,11.58 -123.9,-58.32 -310,15.02 -340.9,28.14 -31,13.11 -74.9,50.71 -97.4,33.79 -22.7,-16.9 -235.3,-88.38 -235.3,-88.38 -24,6.16 -6.8,34.65 -9.7,186.23 -2.9,151.59 93,365.68 99.9,386.44 7.1,20.77 12.3,6.49 42.4,-17.22 z m -115.1,108.27 c -5.3,-13.43 -72.2,-197.85 -112.6,-398.23 -40.5,-200.37 17,-362.69 25.2,-367.6 8.1,-4.91 27.3,8.5 27.3,8.5 0,0 27.6,-27.78 32.3,-22.3 4.7,5.49 241.8,103.92 251.4,106.35 9.8,2.41 91.2,-74.39 242.3,-90.66 129.1,-13.88 208.7,23.93 208.7,23.93 0,0 289.9,-255.38 305.6,-256.54 15.7,-1.16 117.2,23.65 243.6,158.25 112.5,119.65 157.4,271.35 152.7,271.39 -4.7,0.05 -32.4,30.61 -32.4,30.61 0,0 30.7,37.01 24.7,40.69 -6.2,3.69 -78.5,58.47 -218.4,176.16 -139.9,117.69 -231.7,223.05 -239.9,227.96 -8.1,4.91 -28.5,3.33 -28.5,3.33 0,0 -8.1,18.76 -16.3,23.68 -8.1,4.9 -124.2,5.6 -315.3,1.59 -191.1,-4.01 -276.9,-63.29 -284.6,-53.08 -67.1,88.77 -200,178.96 -207.4,166.76 -7.3,-12.21 -16.1,-51.32 -16.1,-51.32 0,0 -37,13.97 -42.3,0.53" /></g><path
         id="path338"
         style="fill:#ed1d24;fill-opacity:1;fill-rule:nonzero;stroke:none"
         d="m 3925.94,6759.34 c 0,0 267.57,-235.65 321.72,-239.04 54.16,-3.38 114.68,14.17 122.71,35.31 8.03,21.14 115.71,427.41 125.09,623.37 9.39,195.96 9.39,195.96 9.39,195.96 0,0 -104.43,-160.68 -270.04,-315.48 -165.6,-154.8 -308.87,-300.12 -308.87,-300.12" /><path
         id="path340"
         style="fill:#ed1d24;fill-opacity:1;fill-rule:nonzero;stroke:none"
         d="m 2274.5,6101.07 c 188.93,23.35 368.5,56.43 533.72,98.32 744.71,188.84 1335.74,610.03 1756.65,1251.87 198.25,302.3 327.91,609.76 411.67,865.25 3.04,9.25 -49.31,42.36 -46.4,51.47 25.83,80.78 47.02,155.99 64.31,223.74 1.92,7.54 59.12,-8.94 60.95,-1.58 24.86,99.92 41,182.3 51.02,240.61 68.94,401.19 -26.94,806.26 -270,1140.6 -40.82,56.15 -85.09,109.45 -132.46,159.75 -8.9,9.4 -49.71,-33.5 -58.83,-24.2 -49.9,50.5 -103.03,97.7 -159.01,141.4 -14.05,11 3.53,73.9 -10.87,84.5 -187.85,137.2 -405.42,236.3 -640.16,289.1 -215.33,48.4 -419.38,61.3 -606.47,38.2 -346.48,-42.8 -642.57,-208.3 -880.04,-491.9 -211.13,-252.08 -329.39,-600.58 -473.59,-998.44 -140.77,-388.44 -411.4,-1194.77 -1754.392,-1484.6 l -27.0355,-91.07 c 0,0 385.4145,-124.83 545.3865,-130.59 159.977,-5.76 140.914,-17.25 140.914,-17.25 0,0 47.328,-80.35 -8.293,-95.13 -55.625,-14.79 -336.972,-296.37 -336.972,-296.37 l 638.082,-27.71 0.31,-104.41 -256.728,-320.18 23.07,-27.71 c 0,0 262.428,5.55 427.048,50.57 164.61,45.02 205.28,59.03 205.28,59.03 l 45.23,-117.74 -245.93,-365.11 -22.76,-76.7 42.77,-49.2 c 0,0 566.17,-45.31 983.53,25.48" /><path
         id="path342"
         style="fill:#100f0d;fill-opacity:1;fill-rule:nonzero;stroke:none"
         d="m 4435.3,7312.61 c 0,0 9.89,-501.26 -134.22,-735.33 -11.19,-18.17 -250.3,143.18 -308.53,213.8 -27.65,33.53 -27.65,33.53 -27.65,33.53 l -108.88,-97.42 c 0,0 56.97,-53.42 161.86,-141.22 104.89,-87.81 221.78,-164.06 241.63,-161.6 19.85,2.45 46.4,59.46 46.4,59.46 0,0 70.21,-51.78 79.31,-43.94 9.11,7.84 85.32,97.86 136.64,416.56 51.33,318.69 45.19,640.36 45.19,640.36 l -131.75,-184.2" /><path
         id="path344"
         style="fill:#100f0d;fill-opacity:1;fill-rule:nonzero;stroke:none"
         d="m 4190.95,7033.89 c 0,0 114.77,-113.45 132.95,-124.64 18.17,-11.19 -38.96,-65.27 -49.72,-73.32 -10.77,-8.04 -153.23,112.07 -153.23,112.07 l 70,85.89" /><path
         id="path346"
         style="fill:#ffffff;fill-opacity:1;fill-rule:nonzero;stroke:none"
         d="m 3532.51,8409.2 c -31.29,0 -63.61,7.09 -96.06,21.07 -220.24,94.92 -169.32,376.83 -87.83,596.61 127.5,343.84 419.36,592.73 553.91,592.73 9.83,0 18.36,-1.47 25.34,-4.37 152.9,-63.36 166.5,-362.56 32.33,-711.42 -122.66,-318.96 -274.56,-494.62 -427.69,-494.62" /><path
         id="path348"
         style="fill:#100f0d;fill-opacity:1;fill-rule:nonzero;stroke:none"
         d="m 3902.53,9649.61 c -147.92,-0.01 -449.43,-254.68 -582.04,-612.3 -127.06,-342.69 -79.54,-555.44 104.09,-634.59 37.16,-16.01 73.14,-23.52 107.93,-23.52 190.5,0 344.76,225.41 455.7,513.86 131.19,341.13 135.87,673.33 -48.85,749.9 -10.79,4.47 -23.15,6.65 -36.83,6.65 z m 0.01,-60 v 0 c 5.7,0 10.62,-0.74 13.85,-2.08 81.4,-33.74 102.52,-139.76 105.91,-222.76 5.14,-125.87 -26.86,-285.75 -90.09,-450.17 -117.9,-306.57 -259.85,-475.4 -399.7,-475.4 -27.18,0 -55.51,6.26 -84.19,18.62 -198.61,85.61 -148.54,351.03 -71.57,558.63 57.26,154.41 153.52,302.97 271.04,418.29 109.03,106.98 206.51,154.87 254.75,154.87" /><path
         id="path350"
         style="fill:#ffffff;fill-opacity:1;fill-rule:nonzero;stroke:none"
         d="m 4256.26,8129 c -22.62,0 -45.88,4.31 -69.12,12.81 -179.48,65.65 -216.9,271.42 -117.76,647.61 97.29,369.19 268.12,647.61 397.36,647.61 7.68,0 15.34,-1 22.79,-2.96 141.68,-37.34 252.68,-418.56 167.92,-742.71 C 4566.74,8344.48 4413.02,8129 4256.26,8129" /><path
         id="path352"
         style="fill:#100f0d;fill-opacity:1;fill-rule:nonzero;stroke:none"
         d="m 4466.74,9467.02 c -162.44,0 -336.1,-327.42 -426.37,-669.96 -95.94,-364.04 -76.35,-605.59 136.46,-683.42 27.15,-9.93 53.62,-14.64 79.42,-14.64 192.8,0 346.22,263.54 430.22,584.77 83.94,321.01 -18.54,734.31 -189.29,779.31 -10.09,2.65 -20.24,3.94 -30.44,3.94 z m 0.01,-59.99 v 0 c 5.16,-0.01 10.11,-0.65 15.14,-1.97 57.05,-15.04 114.82,-110.18 147.16,-242.39 36.51,-149.24 36.28,-322.59 -0.63,-463.72 -42.27,-161.66 -99.56,-297.91 -165.69,-394.02 -45.8,-66.57 -118.81,-145.93 -206.48,-145.93 -19.09,0 -38.88,3.69 -58.81,10.99 -82.7,30.24 -128.92,89.99 -145.46,188.01 -17.14,101.62 -1.96,240.23 46.41,423.77 101.77,386.2 270.45,625.25 368.36,625.26" /><path
         id="path354"
         style="fill:#100f0d;fill-opacity:1;fill-rule:nonzero;stroke:none"
         d="m 3405.18,9412.18 c 1.78,-8.8 253.4,-311.29 646.19,-445.83 392.78,-134.53 757.92,49.95 766.83,59.44 8.9,9.5 -15.2,68.66 -27.82,62.06 -12.62,-6.6 -333.37,-179.43 -691.17,-60.17 -371.3,123.76 -634.22,430.51 -638.34,436.72 -4.13,6.21 -60,-30.92 -55.69,-52.22" /><path
         id="path356"
         style="fill:#100f0d;fill-opacity:1;fill-rule:nonzero;stroke:none"
         d="m 3626.55,9251.43 c 0,0 -53.05,-87.16 -58.64,-96.24 -5.6,-9.09 59.27,-88.41 102.33,-163.7 43.06,-75.28 66.34,-127.83 52.09,-121.19 -14.26,6.64 -115.59,120.07 -154.21,147.21 -38.62,27.14 -49.87,36.66 -56.56,22.82 -6.68,-13.84 -104.4,-230.79 -72.02,-362.81 32.38,-132.03 205.49,-214.77 369.21,64.07 163.73,278.84 132.58,327.05 132.58,327.05 0,0 -190.26,85.66 -314.78,182.79" /><path
         id="path358"
         style="fill:#100f0d;fill-opacity:1;fill-rule:nonzero;stroke:none"
         d="m 4199.58,8962.83 c 0,0 -80.65,-162.78 -94.45,-404.63 -13.79,-241.85 175.78,-351.57 343.14,-18.08 29.65,59.08 45.69,105.96 46.42,127.26 0.73,21.31 -65.85,16.45 -121.88,7.85 -56.04,-8.6 -112.05,-3.77 -66.13,18.7 45.93,22.46 182.69,98.13 213.75,132.19 31.05,34.07 16.33,139.72 16.33,139.72 0,0 -172.87,-28.06 -337.18,-3.01" /><path
         id="path360"
         style="fill:#100f0d;fill-opacity:1;fill-rule:nonzero;stroke:none"
         d="m 4830,9877.07 c 107.58,-147.85 154.21,-306.53 193.67,-480.41 41.15,-181.32 45.78,-367.73 13.76,-554.05 -38.03,-221.29 -165.91,-796.11 -531.1,-1352.96 -411,-626.73 -988.12,-1038.01 -1715.32,-1222.41 -727.19,-184.4 -1468.07,-154.2 -1482.17,-138.99 -10.05,7.56 -16.12,17.87 -18.05,30.67 l -1.11,7.45 6.73,3.41 c 1.93,0.97 193.12,100.44 310.29,394.09 -2.71,3.37 -11.07,12.05 -36.3,31.01 -21.87,16.42 -44.77,31.85 -45,32 l -3.66,2.46 -0.78,4.34 c -7.74,42.78 -24.96,107.79 -39.02,118.35 -0.01,0.01 -0.03,0.02 -0.04,0.03 -0.18,0.14 -0.23,0.21 -0.2,0.26 -5.37,-1.82 -11.3,-4.41 -19.38,-7.94 -31.65,-13.84 -90.54,-39.59 -262.47,-84.74 -155.5,-40.83 -278.584,-58.48 -299.323,-42.91 -3.261,2.45 -5.148,5.9 -5.312,9.72 -0.102,2.29 0.41,6.74 4.933,10.78 3.516,3.14 9.825,7.61 18.551,13.8 29.766,21.11 85.161,60.4 125.011,113.4 12.16,16.18 24.31,32.15 36,47.54 38.67,50.85 82.08,107.94 89.86,126.82 -15.92,6.37 -43.58,16.56 -43.9,16.68 l -7.87,2.89 1.15,8.32 c 0.1,0.74 10.13,74.11 6,103.29 -0.91,6.36 -1.04,11.5 -1.16,15.63 -0.05,1.86 -0.11,4.05 -0.26,5.44 -5.55,1.3 -26.09,-0.04 -44.34,-1.2 -232.045,-14.94 -539.573,-1.51 -542.651,-1.37 l -37.008,1.65 32.434,17.9 c 2.387,1.32 236.265,131.26 349.844,268.21 l -35.411,43.66 0.129,3.89 c 1.309,40.93 1.235,88.62 -0.918,105.14 -6.511,-0.52 -17.613,-1.91 -29.191,-3.36 -101.09,-12.71 -408.73,-51.37 -640.805,92.43 l -17.98,11.14 c 426.406,106.23 1408.697,337.69 1785.247,1523.57 309.45,974.5 724.19,1460.7 1496.57,1462.3 566.18,1.1 1111.49,-354.4 1390.55,-737.93 z m -129.14,328.53 c -17.24,17.7 -66,-39.8 -77.24,-48.6 -11.25,-8.7 -96.25,77.5 -86.25,86.3 7.77,6.8 50,65 29.82,81.5 -174.68,140.1 -379.26,248.7 -603.73,315.3 -38.56,11.4 -77.73,21.7 -117.4,30.6 C 2685.11,10931.8 2068.4,10144.7 1826.5,9181.94 1440.83,7882.65 55.0977,7728.08 33.3867,7715.54 c -19.7929,-8.95 24.0235,-76.46 24.0235,-76.46 0,0 -77.6719,-65.43 -52.32817,-82.88 36.94927,-25.44 286.63697,-139.28 701.03497,-164.7 0,0 -99.41,-128.23 -253.086,-183.4 -37.375,-13.42 23.52,-91.46 23.52,-91.46 0,0 -54.813,2.75 -67.344,4.48 -12.535,1.73 -26.883,-107.39 -25.66,-116 1.219,-8.6 23.375,-15.19 281.945,-31.14 258.571,-15.95 388.818,-12.35 388.818,-12.35 0,0 -163.923,-202.77 -291.357,-306.13 -23.613,-19.15 18.152,-41.31 18.152,-41.31 0,0 -31.117,-1.06 -31.226,-14.97 -0.277,-35.15 6.301,-106.19 4.078,-115.28 -2.219,-9.09 309.223,-32.49 699.183,114.17 0,0 -2.31,-78.53 -94.3,-195.08 -95.97,-121.59 -166.78,-142.18 -177.36,-154.22 -10.58,-12.03 41.73,-71.31 41.73,-71.31 0,0 -95.95,-69.38 -93.48,-83.5 16.54,-94.33 760.14,-139.45 1640.14,68.05 1340,302.5 1957.5,1227.5 2257.03,2146.37 -1.71,2.47 6.74,21.12 4.22,35.62 -2.96,16.98 -66.71,45.68 -72.58,54.6 -5.43,8.25 35.08,137.16 45.08,134.66 13.02,-3.26 85,-21.25 88.35,-3.05 29.16,111.58 49.75,210.71 63.72,292.03 91.24,530.86 -98.89,1030.71 -454.83,1383.32" /><path
         id="path362"
         style="fill:#100f0d;fill-opacity:1;fill-rule:nonzero;stroke:none"
         d="m 2633.82,8940.74 c 14.32,0.57 195.06,79.51 403.1,-150.05 208.04,-229.57 260.17,-624.49 439.21,-755.2 216.32,-157.92 515.4,-249.14 840.48,-183.36 21.29,4.31 16.21,-76.93 11.03,-89.32 -5.19,-12.4 -355.69,-84.23 -682.32,58.47 -326.62,142.71 -411.27,352.25 -534.41,682.98 -92.15,247.53 -375.63,379.31 -466.06,347.16 -14.48,-5.14 -31.09,88.53 -11.03,89.32" /><path
         id="path364"
         style="fill:#f68612;fill-opacity:1;fill-rule:nonzero;stroke:none"
         d="m 3737.48,6682.2 c -11.33,-1.4 -39.56,-0.6 -57.08,37.03 -8.1,17.43 -46.26,184.97 -46.94,206.07 -0.12,3.58 -0.74,5.86 -1.23,7.03 -229.65,67.06 -425.13,221.14 -521.35,307.19 -2.69,2.39 -4.52,4.04 -5.47,4.83 -21.55,16.8 -16.84,40.03 -15.3,47.66 0.19,0.93 0.44,1.89 0.55,2.89 -0.68,15.83 13.82,110.94 26.28,189 28.7,179.77 34.48,189.44 38.31,195.85 10.98,18.41 47.74,52.68 240.6,177.72 107.29,69.58 146.97,80.99 167.49,83.53 18.3,2.26 29.5,-2.3 37.25,-6.94 27.85,-10.71 58.12,-57.43 61.04,-64.32 7.52,-17.72 1.48,-32.57 -6.17,-51.37 -5.06,-12.45 -11.99,-29.48 -20.68,-56.83 -21.46,-67.47 -42.41,-170.38 -47.72,-208.81 12.06,-5.31 30.12,-11.91 43.77,-15.65 26.24,121.97 60.2,218.83 78.77,267.25 l 1.1,2.87 c 5,14.14 17.8,22.63 38.01,25.12 22.61,2.8 61.69,-0.02 119.47,-8.61 58.19,-8.65 156.7,-30.27 162.58,-77.9 16.27,-131.72 7.71,-390.86 4.06,-445.19 -0.76,-11.2 -0.85,-12.64 47.78,-23.71 7.52,-1.71 15.58,-3.55 24.19,-5.64 112.29,-27.34 154.15,-53.34 149.3,-92.74 -1.33,-10.84 -17.81,-110.65 -184.2,-271.31 -136.75,-132.05 -252.57,-188.1 -296.16,-209.2 -6.13,-2.96 -12.46,-6.03 -14.5,-7.26 -7.79,-4.7 -15.78,-7.58 -23.75,-8.56 v 0" /><path
         id="path366"
         style="fill:#100f0d;fill-opacity:1;fill-rule:nonzero;stroke:none"
         d="m 4227.14,7175.58 c -0.84,-6.82 -17.72,-101.27 -175.27,-253.39 -157.54,-152.13 -284.33,-199.69 -305.32,-212.36 -21,-12.67 -32.51,3.35 -38.13,15.44 -5.82,12.51 -43.57,175.99 -44.16,194.39 -0.59,18.4 -8.84,30.81 -21.03,34.34 -280.64,81.32 -507.07,298.44 -518.22,307.13 -11.15,8.7 -2.25,18.2 -3.68,29.78 -1.43,11.58 50.75,350.53 60.49,366.85 9.74,16.31 64.79,60.06 231.16,167.93 166.36,107.87 168.8,74.58 177.27,73.95 8.48,-0.63 39.84,-37.06 44.58,-48.23 4.74,-11.17 -7.27,-22.73 -27.83,-87.4 -26.2,-82.43 -54.29,-226.7 -49.96,-234.56 4.33,-7.87 96.07,-43.56 99.19,-28.06 32.75,162.5 81.04,282.06 83.53,289.09 2.49,7.02 32.26,10.7 124.83,-3.06 92.56,-13.76 135.58,-38.67 137.22,-51.9 16.48,-133.5 6.85,-395.48 3.89,-439.51 -2.95,-44.03 30.74,-44.9 94.8,-60.5 125.46,-30.55 127.47,-53.11 126.64,-59.93 z m 133.37,21.51 c -12.6,6.84 -70.25,24.91 -70.25,24.91 0,0 12.18,41.81 6.34,52.84 -5.84,11.04 -154.81,61.49 -166.8,63.37 -11.99,1.88 -5.69,345.24 -12.45,386.39 -6.76,41.14 -5.09,54.79 -16.67,53.36 -11.58,-1.43 -59.1,16.21 -59.1,16.21 0,0 -2.63,34.94 -4.06,46.52 -1.43,11.57 -58.65,39.77 -174.61,54 -115.95,14.23 -136.63,4.96 -136.63,4.96 0,0 -86.66,116.93 -101.52,128.52 -14.87,11.6 -132.36,-13.59 -366.57,-172.9 -171.96,-116.96 -174.27,-139.07 -184.64,-163.86 -10.38,-24.8 -66.98,-397.29 -71.72,-411.9 -8.52,-26.24 39.45,-20.32 39.45,-20.32 0,0 -15.35,-38.91 -18.99,-50.24 -3.63,-11.33 58.27,-91.01 222.48,-183.24 164.21,-92.24 323.08,-154.9 323.08,-154.9 0,0 4.91,-139.12 23.46,-217.1 6.98,-29.37 71.08,-18.09 71.08,-18.09 1.23,-9.92 30.05,-70.62 37.91,-89.36 7.86,-18.74 283.3,100.88 472.34,282.72 189.04,181.85 200.47,361.27 187.87,368.11" /><path
         id="path368"
         style="fill:#ed1d24;fill-opacity:1;fill-rule:nonzero;stroke:none"
         d="m 1440.83,9539.03 c 0,0 437.63,255.57 456.26,267.94 18.62,12.38 353.16,-371.18 372.7,-434.25 19.55,-63.08 26.62,-133.93 -31.51,-179.98 -58.13,-46.05 -121.02,-80.69 -143.36,-90.16 -22.34,-9.48 -216.2,336.03 -236.42,350.33 -20.21,14.29 -216.41,-137.57 -216.41,-137.57 0,0 -225.92,209.28 -201.26,223.69" /><path
         id="path370"
         style="fill:#100f0d;fill-opacity:1;fill-rule:nonzero;stroke:none"
         d="m 2230.93,9313.45 c 9.29,-14.98 13.72,-29.49 58.41,-3.81 44.69,25.67 58.04,39.91 56.2,54.8 -1.83,14.88 -358.96,499.77 -391.49,518.42 -32.53,18.66 -512.06,-279.87 -517.97,-293.2 -5.91,-13.32 25.38,-83.11 39.77,-77.26 14.39,5.86 425.61,245.57 433.05,246.49 7.45,0.92 164.76,-191.86 322.03,-445.44" /><path
         id="path372"
         style="fill:#100f0d;fill-opacity:1;fill-rule:nonzero;stroke:none"
         d="m 2225.69,9253.91 c 7.3,7.7 23.61,33.15 40.34,20.1 16.72,-13.05 36.54,-30.75 41.17,-47.81 4.63,-17.07 -90.93,-120.39 -161.89,-157.7 -70.96,-37.32 -50.5,-39.83 -70.96,-37.32 -20.47,2.51 -226.63,366.47 -236.46,364.51 -9.84,-1.96 -190.8,-127.59 -207.56,-134.7 -16.75,-7.11 -60.99,65.52 -60.04,78.23 0.95,12.72 281.89,185.23 287.2,189.13 24.74,18.17 233.45,-346 241.85,-352.77 8.39,-6.77 107.46,58.44 126.35,78.33" /><path
         id="path374"
         style="fill:#f68612;fill-opacity:1;fill-rule:nonzero;stroke:none"
         d="m 624.414,8770.39 c -21.812,35.51 -42.668,73.83 -62,113.87 -123.461,255.79 -106.484,355.74 -85.379,392.54 26.543,46.28 407.082,217.19 640.985,230.5 22.21,1.27 22.21,1.27 36.28,20.4 7.52,10.23 17.82,24.23 35.13,43.33 20.37,22.48 38.65,50.38 54.78,75 29.7,45.31 51.15,78.06 78.88,61.67 27.94,-16.34 123.59,-78.98 206.17,-213.43 70.29,-114.44 112.74,-250.4 126.17,-404.07 0.96,-11.06 -2.31,-20.93 -9.47,-28.55 -17.73,-18.84 -52.99,-20.05 -123.72,-18.24 -36.45,0.94 -63.11,4.81 -80.75,7.38 -6.02,0.87 -12.57,1.82 -17.24,2.25 -0.81,-5.22 -1.67,-12.5 -2.47,-19.2 -4.81,-40.53 -13.76,-115.96 -50.93,-209.85 -49.25,-124.46 -98.59,-187.76 -114.81,-208.57 -1.41,-1.81 -2.53,-3.25 -3.34,-4.35 -2.7,-3.62 -9.05,-9.62 -21.29,-9.07 -34.75,1.54 -152.13,71.51 -195.81,142.63 -10.4,16.94 -1.21,39.55 61.44,151.23 15.66,27.92 36.57,65.2 41.79,78.74 -6.73,5.5 -26.55,13.25 -47.41,18.61 -41.16,-52.35 -127.295,-175.48 -129.857,-244.28 -0.34,-9.21 4.039,-21.5 12.656,-35.53 18.32,-29.83 48.851,-56.54 49.151,-56.81 l 17.7,-15.39 -19.04,-13.68 c -3.72,-2.67 -91.979,-65.67 -165.069,-86.09 -37.102,-10.37 -141.738,81.11 -232.547,228.96" /><path
         id="path376"
         style="fill:#100f0d;fill-opacity:1;fill-rule:nonzero;stroke:none"
         d="m 1051.41,8754.34 c -11.33,18.44 106.08,199.38 106.91,221.65 0.83,22.28 -74.08,37.94 -74.08,37.94 0,0 -137.658,-168.87 -141.213,-264.31 -1.726,-46.41 68.193,-107.03 68.193,-107.03 0,0 -88.482,-63.52 -159.247,-83.3 -21.676,-6.06 -155.356,89.59 -272.852,333.04 -117.5,243.44 -105.262,341.65 -85.996,375.25 19.27,33.6 385.125,207.5 625.945,221.21 45.57,2.59 32.21,12.52 84.1,69.79 51.9,57.26 89.27,145.69 110.49,133.15 13.3,-7.86 284.66,-160.94 323.29,-603.15 2.41,-27.54 -40.52,-28.52 -114.24,-26.63 -73.71,1.89 -104.07,15.89 -112.99,6.78 -8.92,-9.1 -3.16,-104.12 -56.11,-237.92 -52.96,-133.79 -105.87,-195.31 -115.8,-208.67 -9.94,-13.36 -140.55,57.55 -186.4,132.2 z m 226.84,-198.05 c 0,0 20.25,-9.33 40.9,-7.53 20.66,1.81 55.96,74.28 121.91,219.98 65.95,145.71 39.65,202.12 39.65,202.12 0,0 213.05,7.51 230.14,32.52 17.09,25 31.61,84.71 -41.07,344.79 -72.68,260.09 -251.96,422.05 -320.13,450.34 -29.33,12.18 -63.22,-38.83 -63.22,-38.83 0,0 -36.88,30.53 -49.6,15.46 -12.71,-15.06 -102.06,-164.26 -129.17,-170.02 -27.11,-5.77 -104.32,1.22 -324.109,-72.1 -297.379,-99.21 -414.703,-193.04 -409.25,-207.83 5.457,-14.79 34.992,-51.06 34.992,-51.06 0,0 -37.664,2.26 -44.742,-27.48 -7.078,-29.74 -32.141,-124.95 115.039,-411.83 158.137,-308.23 265.59,-355.63 307.691,-376.93 27.586,-13.96 41.77,14.77 41.77,14.77 0,0 -10.61,-35.73 17.797,-28.98 164.542,39.15 248.952,120.26 248.952,120.26 65.17,-47.04 130.56,-64.92 152.88,-59.91 22.32,5.01 29.57,52.26 29.57,52.26" /></g></g></svg>